<svg id="Layer_1" enable-background="new 0 0 512 512" height="512" viewBox="0 0 512 512" width="512" xmlns="http://www.w3.org/2000/svg"><g><g><path d="m426.744 477.867c18.851 0 34.133-15.282 34.133-34.133v-409.6c.001-18.852-15.281-34.134-34.133-34.134h-341.488c-18.852 0-34.134 15.282-34.134 34.133v409.6c0 18.851 15.282 34.133 34.133 34.133h341.489z" fill="#ffdc67"/><path d="m358.322 443.733h25.6c4.01 0 7.498-2.789 8.328-6.713 2.889-13.651 14.287-24.91 27.758-27.779 3.931-.837 6.736-4.314 6.736-8.333v-323.95c0-4.019-2.805-7.496-6.736-8.333-13.47-2.869-24.869-14.128-27.758-27.779-.83-3.924-4.318-6.713-8.328-6.713h-255.844c-4.01 0-7.498 2.789-8.329 6.713-2.888 13.651-14.287 24.91-27.758 27.779-3.931.837-6.736 4.314-6.736 8.333v323.951c0 4.019 2.805 7.496 6.736 8.333 13.47 2.869 24.869 14.128 27.758 27.779.83 3.924 4.318 6.713 8.329 6.713h127.845 102.399z" fill="#f9f5f5"/><path d="m426.744 0h-23.694c18.851 0 34.133 15.282 34.133 34.133v409.6c0 18.851-15.282 34.133-34.133 34.133h23.694c18.851 0 34.133-15.282 34.133-34.133v-409.6c.001-18.851-15.281-34.133-34.133-34.133z" fill="#ffb957"/><path d="m420.009 68.625c-13.47-2.869-24.869-14.128-27.758-27.779-.83-3.924-4.318-6.713-8.328-6.713h-23.694c4.01 0 7.498 2.789 8.328 6.713 2.888 13.651 14.287 24.91 27.758 27.779 3.931.837 6.736 4.314 6.736 8.333v323.951c0 4.019-2.805 7.496-6.736 8.333-13.47 2.869-24.869 14.128-27.758 27.779-.83 3.924-4.318 6.713-8.328 6.713h23.694c4.01 0 7.498-2.789 8.328-6.713 2.888-13.651 14.287-24.91 27.758-27.779 3.931-.837 6.736-4.314 6.736-8.333v-323.951c-.001-4.019-2.805-7.496-6.736-8.333z" fill="#e2d8ec"/></g><path d="m316.189 119.467h-120.533c-4.418 0-8-3.582-8-8v-18.134c0-4.418 3.582-8 8-8h120.533c4.418 0 8 3.582 8 8v18.133c0 4.419-3.582 8.001-8 8.001z" fill="#7da8ff"/><g><path d="m350.531 411.085 5.989 11.979c1.185 2.37 1.802 4.983 1.802 7.632v72.765c0 5.824-5.706 9.937-11.232 8.095l-22.9-7.634-14.37-10.98c-1.752-.584-3.645-.584-5.397 0l-14.368 10.98-22.902 7.634c-5.526 1.842-11.232-2.271-11.232-8.095v-72.765c0-2.65.617-5.263 1.802-7.632l5.988-11.976z" fill="#ff5856"/><path d="m356.521 423.063-5.989-11.979-23.694.001 5.989 11.978c1.185 2.37 1.802 4.983 1.802 7.632v72.765c0 1.329-.309 2.563-.834 3.663l13.296 4.432c5.526 1.842 11.232-2.271 11.232-8.095v-72.765c-.001-2.649-.618-5.262-1.802-7.632z" fill="#f54745"/><path d="m324.189 411.085-34.134.001v92.835l14.368-4.789c1.752-.584 3.645-.584 5.397 0l14.368 4.789v-92.836z" fill="#f9f5f5"/><circle cx="307.122" cy="358.4" fill="#ffdc67" r="68.267"/><circle cx="307.122" cy="358.4" fill="#ffb456" r="34.133"/><path d="m307.122 290.133c-4.043 0-7.997.372-11.847 1.046 32.052 5.612 56.42 33.562 56.42 67.221s-24.367 61.609-56.42 67.221c3.85.674 7.804 1.046 11.847 1.046 37.703 0 68.267-30.564 68.267-68.267s-30.564-68.267-68.267-68.267z" fill="#ffb957"/></g><g fill="#ffb456"><path d="m426.667 433.874c-4.268 0-7.726 3.459-7.726 7.726v4.267c0 4.267 3.459 7.726 7.726 7.726 4.268 0 7.726-3.459 7.726-7.726v-4.267c0-4.267-3.459-7.726-7.726-7.726z"/><path d="m426.667 24.274c-4.268 0-7.726 3.459-7.726 7.726v4.267c0 4.267 3.459 7.726 7.726 7.726 4.268 0 7.726-3.459 7.726-7.726v-4.267c0-4.267-3.459-7.726-7.726-7.726z"/><path d="m85.256 24.274c-4.268 0-7.726 3.459-7.726 7.726v4.267c0 4.267 3.459 7.726 7.726 7.726 4.268 0 7.726-3.459 7.726-7.726v-4.267c0-4.267-3.458-7.726-7.726-7.726z"/><path d="m85.256 433.875c-4.268 0-7.726 3.459-7.726 7.726v4.267c0 4.267 3.459 7.726 7.726 7.726 4.268 0 7.726-3.459 7.726-7.726v-4.267c0-4.267-3.458-7.726-7.726-7.726z"/></g><path d="m309.256 350.673h-4.267c-4.268 0-7.726 3.459-7.726 7.726s3.459 7.726 7.726 7.726h4.267c4.268 0 7.726-3.459 7.726-7.726s-3.458-7.726-7.726-7.726z" fill="#ff9a56"/><g fill="#365e7d"><path d="m153.523 161.327h204.8c4.267 0 7.726-3.459 7.726-7.726s-3.459-7.726-7.726-7.726h-204.8c-4.268 0-7.726 3.459-7.726 7.726s3.458 7.726 7.726 7.726z"/><path d="m358.322 180.007h-204.8c-4.268 0-7.726 3.459-7.726 7.726s3.459 7.726 7.726 7.726h204.8c4.267 0 7.726-3.459 7.726-7.726s-3.458-7.726-7.726-7.726z"/><path d="m358.322 214.14h-204.8c-4.268 0-7.726 3.459-7.726 7.726s3.459 7.726 7.726 7.726h204.8c4.267 0 7.726-3.459 7.726-7.726s-3.458-7.726-7.726-7.726z"/><path d="m307.122 248.274h-102.399c-4.268 0-7.726 3.459-7.726 7.726s3.459 7.726 7.726 7.726h102.399c4.267 0 7.726-3.459 7.726-7.726.001-4.267-3.458-7.726-7.726-7.726z"/></g><path d="m315.948 85.333h-23.694c4.552 0 8.241 3.69 8.241 8.242v17.651c0 4.551-3.69 8.241-8.241 8.241h23.694c4.551 0 8.241-3.69 8.241-8.241v-17.651c0-4.552-3.69-8.242-8.241-8.242z" fill="#7092ff"/></g></svg>