<svg id="Capa_1" enable-background="new 0 0 512 512" height="512" viewBox="0 0 512 512" width="512" xmlns="http://www.w3.org/2000/svg"><path d="m279.845 4.343h-99.707c-25.798 0-46.711 20.913-46.711 46.711v52.783h193.13v-52.783c0-25.798-20.914-46.711-46.712-46.711z" fill="#a64c31"/><path d="m278.412 4.343h-44.127c26.589 0 48.144 21.555 48.144 48.144v51.35h44.128v-51.35c0-26.589-21.555-48.144-48.145-48.144z" fill="#8a3e25"/><path d="m167.912 249.517h122.908v165.551h-122.908z" fill="#e5ecf1"/><path d="m287.56 249.517h-21.182l-15.326 112.39c-2.15 15.767-11.018 29.833-24.319 38.57l-19.859 13.046-20.585-13.092c-13.667-8.692-22.812-22.962-25-39.01l-15.012-110.088c-82.739 12.08-146.277 83.32-146.277 169.41 0 7.965 6.457 14.423 14.423 14.423h429.942c7.965 0 14.423-6.457 14.423-14.423-.001-94.565-76.662-171.226-171.228-171.226z" fill="#d6e4ea"/><path d="m246.4 298.244h-34.013l-6.184 121.462h46.381z" fill="#586b76"/><path d="m246.4 298.244h-17.088l6.185 121.462h17.087z" fill="#465961"/><path d="m219.122 314.268-16.339-16.339c-5.673-5.673-5.673-14.871 0-20.544l16.339-16.339c5.673-5.673 14.871-5.673 20.544 0l16.339 16.339c5.673 5.673 5.673 14.871 0 20.544l-16.339 16.339c-5.674 5.673-14.871 5.673-20.544 0z" fill="#586b76"/><path d="m256.005 277.385-5.53-5.53c-.617 2.469-1.874 4.81-3.804 6.74l-16.339 16.339c-5.673 5.673-14.871 5.673-20.544 0l-10.81-10.81c-1.196 4.787.061 10.061 3.804 13.804l16.339 16.339c5.673 5.673 14.871 5.673 20.544 0l16.339-16.339c5.673-5.672 5.673-14.87.001-20.543z" fill="#465961"/><path d="m289.564 249.542-15.322 112.365c-2.15 15.767-11.018 29.833-24.319 38.57l-19.859 13.046-20.585-13.092c-13.667-8.692-22.812-22.962-25-39.01l-15.256-111.878c-93.641 1.075-169.223 77.305-169.223 171.2 0 7.965 6.457 14.423 14.423 14.423h429.942c7.965 0 14.423-6.457 14.423-14.423-.001-93.895-75.583-170.125-169.224-171.201z" fill="#586b76"/><path d="m289.564 249.542-.694 5.086c74.466 18.581 129.638 85.895 129.638 166.115 0 7.966-6.457 14.423-14.422 14.423h40.277c7.965 0 14.423-6.457 14.423-14.423.001-93.895-75.581-170.125-169.222-171.201z" fill="#465961"/><path d="m328.38 125.919c-.624-.046-1.228-.058-1.823-.055v-32.262c0-17.745-14.385-32.131-32.131-32.131h-128.723c-17.745 0-32.131 14.385-32.131 32.131v32.311c-1.014-.07-2.065-.075-3.166.006-15.736 1.159-27.905 10.066-26.531 28.735 1.346 18.276 15.174 39.118 30.517 38.901 6.182 47.328 46.657 83.875 95.671 83.875 49.027 0 89.51-36.564 95.676-83.91 14.798-.972 27.864-21.126 29.17-38.866 1.376-18.669-10.793-27.576-26.529-28.735z" fill="#f1b0a2"/><circle cx="189.116" cy="147.805" fill="#8a3e25" r="12.959"/><circle cx="270.997" cy="147.805" fill="#8a3e25" r="12.959"/><circle cx="414.021" cy="409.678" fill="#fbe7c5" r="97.979"/><path d="m469.965 329.238c11.053 15.863 17.539 35.144 17.539 55.944 0 54.112-43.867 97.979-97.979 97.979-20.799 0-40.081-6.486-55.944-17.539 17.702 25.406 47.127 42.035 80.44 42.035 54.112 0 97.979-43.867 97.979-97.979 0-33.313-16.629-62.737-42.035-80.44z" fill="#fdd8a3"/><path d="m255.23 215.116h-51.835c-4.27 0-7.73-3.46-7.73-7.73s3.46-7.73 7.73-7.73h51.835c4.27 0 7.73 3.46 7.73 7.73s-3.46 7.73-7.73 7.73z" fill="#fdad9d"/><path d="m440.956 412.055c-1.313-1.313-1.313-3.441 0-4.753l21.466-21.466c6.979-6.978 6.777-18.419-.607-25.138-6.916-6.293-17.687-5.685-24.299.927l-21.118 21.118c-1.313 1.313-3.441 1.313-4.753 0l-21.118-21.118c-6.612-6.612-17.383-7.221-24.299-.927-7.384 6.719-7.587 18.16-.607 25.138l21.466 21.466c1.313 1.313 1.313 3.441 0 4.753l-21.466 21.466c-6.782 6.781-6.782 17.777 0 24.559 3.391 3.391 7.835 5.087 12.279 5.087s8.889-1.696 12.279-5.087l21.466-21.466c1.313-1.313 3.441-1.313 4.753 0l21.466 21.466c3.391 3.391 7.835 5.087 12.279 5.087s8.889-1.696 12.279-5.087c6.782-6.781 6.782-17.777 0-24.559z" fill="#ff4755"/><path d="m462.422 433.521-21.466-21.466c-1.313-1.313-1.313-3.441 0-4.753l21.466-21.466c6.979-6.978 6.777-18.419-.608-25.138-5.81-5.286-14.331-5.685-20.83-1.764.816.516 1.606 1.092 2.344 1.764 7.384 6.719 7.587 18.16.608 25.138l-21.466 21.466c-1.313 1.313-1.313 3.441 0 4.753l21.466 21.466c6.782 6.781 6.782 17.777 0 24.559-.937.937-1.96 1.731-3.036 2.41 2.817 1.775 6.027 2.677 9.243 2.677 4.444 0 8.889-1.696 12.279-5.087 6.783-6.782 6.783-17.778 0-24.559z" fill="#fc2b3a"/><path d="m328.38 125.919c-.624-.046-1.228-.058-1.823-.055v-32.262c0-17.745-14.385-32.131-32.131-32.131h-4.672c1.135 3.287 1.76 6.813 1.76 10.485v87.336c0 53.291-43.201 96.492-96.492 96.492-11.208 0-21.966-1.917-31.973-5.431 17.358 16.761 40.981 27.076 67.016 27.076 49.027 0 89.51-36.564 95.676-83.91 14.798-.972 27.864-21.126 29.17-38.866 1.374-18.668-10.795-27.575-26.531-28.734z" fill="#eb9c8d"/></svg>