<svg id="Layer_1" enable-background="new 0 0 512 512" height="512" viewBox="0 0 512 512" width="512" xmlns="http://www.w3.org/2000/svg"><g><g><path d="m75.809 23c0-8.284 6.716-15 15-15h252.445l92.937 92.937v388.063c0 8.284-6.716 15-15 15h-330.382c-8.284 0-15-6.716-15-15z" fill="#f2fdff"/><path d="m343.254 8v95.937c0 8.284 6.716 15 15 15h77.937v-18z" fill="#d3ecf5"/><path d="m421.191 486h-330.382c-8.284 0-15-6.716-15-15v18c0 8.284 6.716 15 15 15h330.382c8.284 0 15-6.716 15-15v-18c0 8.284-6.716 15-15 15z" fill="#d3ecf5"/><circle cx="214.45" cy="123.659" fill="#ffcf4d" r="76.408"/><path d="m358.254 100.937h77.937l-92.937-92.937v77.937c0 8.284 6.716 15 15 15z" fill="#e4f0f9"/><path d="m358.254 82.937c-8.284 0-15-6.716-15-15v18c0 8.284 6.716 15 15 15h77.937l-18-18z" fill="#bdcde5"/></g><g><g><path d="m436.544 416.06c-4.151 0-7.515 3.365-7.515 7.515v65.881c0 4.144-3.371 7.515-7.515 7.515h-331.029c-4.144 0-7.515-3.371-7.515-7.515v-259.44c0-4.15-3.364-7.515-7.515-7.515s-7.515 3.364-7.515 7.515v259.44c0 12.431 10.114 22.544 22.544 22.544h331.029c12.43 0 22.544-10.113 22.544-22.544v-65.881c.002-4.15-3.362-7.515-7.513-7.515z"/><path d="m444.046 100.383c-.044-1.893-.862-3.724-2.188-5.063l-93.119-93.119c-1.399-1.396-3.336-2.195-5.314-2.201h-252.94c-12.43 0-22.544 10.113-22.544 22.544v177.413c0 4.15 3.364 7.515 7.515 7.515s7.515-3.365 7.515-7.515v-177.413c0-4.144 3.371-7.515 7.515-7.515h245.424v70.575c0 12.431 10.113 22.544 22.544 22.544h70.575v285.368c0 4.15 3.364 7.515 7.515 7.515s7.515-3.365 7.515-7.515v-292.882c0-.085-.01-.167-.013-.251zm-85.592-7.264c-4.144 0-7.515-3.371-7.515-7.515v-59.947l67.463 67.462z"/><path d="m203.052 86.015c-5.906 0-10.939 3.822-12.525 9.513l-17.624 63.252c-1.115 3.998 1.224 8.142 5.222 9.256 3.997 1.118 8.142-1.223 9.255-5.222l4.523-16.232h22.3l4.523 16.232c.926 3.323 3.945 5.5 7.235 5.5.667 0 1.346-.09 2.021-.278 3.997-1.114 6.336-5.258 5.221-9.256l-17.625-63.252c-1.586-5.691-6.619-9.513-12.526-9.513zm-6.961 45.536 6.962-24.985 6.962 24.985z"/><path d="m245.563 76.938c-4.151 0-7.515 3.364-7.515 7.515v3.114h-3.113c-4.151 0-7.515 3.364-7.515 7.515 0 4.15 3.364 7.515 7.515 7.515h3.113v3.114c0 4.15 3.364 7.515 7.515 7.515s7.515-3.365 7.515-7.515v-3.114h3.113c4.151 0 7.515-3.364 7.515-7.515 0-4.15-3.364-7.515-7.515-7.515h-3.113v-3.114c-.001-4.151-3.365-7.515-7.515-7.515z"/><path d="m214.369 39.327c-46.358 0-84.072 37.715-84.072 84.072s37.714 84.072 84.072 84.072 84.072-37.715 84.072-84.072c0-33.134-19.553-63.278-49.812-76.796-3.791-1.691-8.234.006-9.927 3.796-1.693 3.789.007 8.233 3.796 9.926 24.854 11.103 40.914 35.861 40.914 63.074 0 38.071-30.973 69.043-69.043 69.043s-69.043-30.973-69.043-69.043 30.973-69.043 69.043-69.043c4.151 0 7.515-3.365 7.515-7.515s-3.364-7.514-7.515-7.514z"/><path d="m130.646 261.006 15.346 17.828c2.682 3.251 7.992 3.484 10.947.472l30.409-29.714c2.969-2.901 3.023-7.658.123-10.627-2.9-2.968-7.66-3.024-10.626-.123l-24.684 24.119-10.124-11.762c-2.708-3.146-7.453-3.499-10.598-.793-3.145 2.71-3.501 7.455-.793 10.6z"/><path d="m382.699 233.503h-158.307c-4.151 0-7.515 3.365-7.515 7.515s3.364 7.515 7.515 7.515h158.306c4.151 0 7.515-3.365 7.515-7.515 0-4.151-3.364-7.515-7.514-7.515z"/><path d="m224.392 284.647h90.071c4.151 0 7.515-3.365 7.515-7.515s-3.364-7.515-7.515-7.515h-90.071c-4.151 0-7.515 3.365-7.515 7.515.001 4.15 3.365 7.515 7.515 7.515z"/><path d="m130.646 343.17 15.346 17.828c2.682 3.251 7.992 3.484 10.947.472l30.409-29.713c2.969-2.901 3.023-7.658.123-10.627-2.9-2.968-7.66-3.024-10.626-.123l-24.684 24.119-10.124-11.762c-2.708-3.145-7.453-3.5-10.598-.793-3.145 2.708-3.501 7.453-.793 10.599z"/><path d="m382.699 315.667h-158.307c-4.151 0-7.515 3.365-7.515 7.515s3.364 7.515 7.515 7.515h158.306c4.151 0 7.515-3.365 7.515-7.515 0-4.151-3.364-7.515-7.514-7.515z"/><path d="m224.392 366.811h90.071c4.151 0 7.515-3.365 7.515-7.515s-3.364-7.515-7.515-7.515h-90.071c-4.151 0-7.515 3.365-7.515 7.515.001 4.15 3.365 7.515 7.515 7.515z"/><path d="m130.646 425.334 15.346 17.828c2.682 3.251 7.992 3.484 10.947.472l30.409-29.714c2.969-2.901 3.023-7.658.123-10.627-2.9-2.968-7.66-3.024-10.626-.123l-24.684 24.119-10.124-11.762c-2.708-3.145-7.453-3.501-10.598-.793-3.145 2.709-3.501 7.454-.793 10.6z"/><path d="m390.213 405.345c0-4.15-3.364-7.515-7.515-7.515h-158.306c-4.151 0-7.515 3.365-7.515 7.515s3.364 7.515 7.515 7.515h158.306c4.151 0 7.515-3.365 7.515-7.515z"/><path d="m224.392 433.945c-4.151 0-7.515 3.365-7.515 7.515s3.364 7.515 7.515 7.515h90.071c4.151 0 7.515-3.365 7.515-7.515s-3.364-7.515-7.515-7.515z"/></g></g></g></svg>