<svg id="Layer_1" enable-background="new 0 0 256 256" height="512" viewBox="0 0 256 256" width="512" xmlns="http://www.w3.org/2000/svg"><g><path d="m244 156.5h-2.2v-2.2c0-1.7-1.4-3-3-3-1.7 0-3 1.4-3 3v2.2h-2.2c-1.7 0-3 1.4-3 3 0 1.7 1.4 3 3 3h2.2v2.2c0 1.7 1.4 3 3 3 1.7 0 3-1.4 3-3v-2.2h2.2c1.7 0 3-1.4 3-3 .1-1.6-1.3-3-3-3z" fill="#70d6f9"/><circle cx="230.2" cy="182.5" fill="#f5c84c" r="3.2"/><circle cx="152.2" cy="20.5" fill="#fc657e" r="3.2"/><circle cx="92.2" cy="235.5" fill="#fc657e" r="3.2"/><circle cx="3.2" cy="55.5" fill="#87d147" r="3.2"/><path d="m34.3 40.1c-4-.7-7.1-3.8-7.9-7.7 0-.1-.1-.2-.2-.1-.1 0-.1.1-.1.1-.8 4-3.9 7-7.9 7.7-.1 0-.2.1-.2.2s.1.1.2.2c4 .7 7.1 3.8 7.9 7.7 0 .1.1.2.2.1.1 0 .1-.1.1-.1.8-4 3.9-7 7.9-7.7.1 0 .2-.1.2-.2s-.1-.1-.2-.2z" fill="#f5c84c"/><path d="m151.3 38.8h99.4c1.5 0 2.7 1.2 2.7 2.7v15.2c0 1.5-1.2 2.7-2.7 2.7h-99.4c-1.5 0-2.7-1.2-2.7-2.7v-15.1c0-1.5 1.2-2.8 2.7-2.8z" fill="#70d6f9"/><path d="m152.5 59.5v62c0 1.8 1.4 3.2 3.2 3.2h90.7c1.8 0 3.2-1.4 3.2-3.2v-62z" fill="#70d6f9"/><path d="m211.4 35.4v3.4h27.4c-2.9-26.4-20.8-18.1-30.9-11.1 2.2 2 3.5 4.8 3.5 7.7z" fill="#fc657e"/><path d="m190.7 38.8v-3.4c0-2.9 1.2-5.7 3.4-7.7-10.1-7-27.9-15.3-30.9 11.1z" fill="#fc657e"/><path d="m211.4 38.8v-3.4c-.1-5.7-4.7-10.3-10.4-10.2-5.6.1-10.2 4.6-10.2 10.2v3.4z" fill="#ef4460"/><path d="m190.7 38.8h20.7v20.7h-20.7z" fill="#f5c84c"/><path d="m191.8 59.5h18.6v65.2h-18.6z" fill="#f5c84c"/><path d="m152.5 69h-135.2c-3.4 0-6.2 2.8-6.2 6.2v31.2c0-3.4 2.8-6.2 6.2-6.2h135.2z" fill="#87d147"/><path d="m152.5 81.2h-103.6c-1.1 0-2.1.7-2.5 1.8-2.1 7-6.6 13.1-12.6 17.2h118.7z" fill="#b2e26d"/><path d="m11.1 108.9c-1.4 0-2.5-1.1-2.5-2.5v-31.2c0-4.8 3.9-8.7 8.7-8.7h135.2c1.4 0 2.5 1.1 2.5 2.5v31.2c0 1.4-1.1 2.5-2.5 2.5h-135.2c-2.1 0-3.7 1.7-3.7 3.7 0 1.4-1.1 2.5-2.5 2.5zm6.2-37.4c-2.1 0-3.7 1.7-3.7 3.7v23.3c1.2-.6 2.4-.8 3.7-.8h132.7v-26.2z"/><path d="m152.5 102.7h-118.7c-1.4 0-2.5-1.1-2.5-2.5 0-.8.4-1.6 1.1-2.1 5.6-3.8 9.7-9.4 11.6-15.8.7-2.1 2.6-3.6 4.9-3.6h103.6c1.4 0 2.5 1.1 2.5 2.5v19c0 1.4-1.1 2.5-2.5 2.5zm-111.9-5h109.4v-14h-101.1c-1.6 5.3-4.5 10.1-8.3 14z"/><path d="m155.7 124.7c-1.8 0-3.2-1.4-3.2-3.2v-21.3h-135.2c-3.4 0-6.2 2.8-6.2 6.2v111.1c0 3.4 2.8 6.2 6.2 6.2h194.3c3.4 0 6.2-2.8 6.2-6.2v-92.8z" fill="#87d147"/><path d="m203.7 135.6c-6.3-1.9-11.8-5.7-15.8-10.8h-32.2c-1.8 0-3.2-1.4-3.2-3.2v-9.1h-103.6c-1.1 0-2.1.7-2.5 1.8-3.1 10.2-11.1 18.2-21.3 21.3-1.1.3-1.8 1.3-1.8 2.5v47.9c0 1.1.7 2.1 1.8 2.5 10.2 3.1 18.2 11.1 21.3 21.3.3 1.1 1.3 1.8 2.5 1.8h131.1c1.1 0 2.1-.7 2.5-1.8 3.1-10.2 11.1-18.2 21.3-21.3 1.1-.3 1.8-1.3 1.8-2.5v-48c0-1.1-.8-2.1-1.9-2.4z" fill="#b2e26d"/><circle cx="114.4" cy="162" fill="#87d147" r="34.9"/><path d="m118.7 179.9h-13.6c-1.4 0-2.5-1.1-2.5-2.5s1.1-2.5 2.5-2.5h13.6c2.9 0 5.2-2.3 5.2-5.2s-2.3-5.2-5.2-5.2h-8.5c-5.6.1-10.2-4.5-10.3-10.1s4.5-10.2 10.1-10.3h.2 12.1c1.4 0 2.5 1.1 2.5 2.5s-1.1 2.5-2.5 2.5h-12.1c-2.9 0-5.2 2.3-5.3 5.1 0 2.9 2.3 5.2 5.1 5.3h.1 8.5c5.6 0 10.2 4.6 10.2 10.2.1 5.6-4.5 10.2-10.1 10.2z"/><path d="m114.4 185.1c-1.4 0-2.5-1.1-2.5-2.5v-41.3c0-1.4 1.1-2.5 2.5-2.5s2.5 1.1 2.5 2.5v41.3c0 1.4-1.1 2.5-2.5 2.5z"/><path d="m211.6 226.3h-194.3c-4.8 0-8.7-3.9-8.7-8.7v-111.2c0-4.8 3.9-8.7 8.7-8.7h135.2c1.4 0 2.5 1.1 2.5 2.5v21.3c0 .4.3.7.7.7h62.1c1.4 0 2.5 1.1 2.5 2.5v92.8c0 4.8-3.9 8.7-8.7 8.8zm-194.3-123.6c-2.1 0-3.7 1.7-3.7 3.7v111.1c0 2.1 1.7 3.7 3.7 3.7h194.3c2.1 0 3.7-1.7 3.7-3.7v-90.3h-59.6c-3.1 0-5.7-2.6-5.7-5.7v-18.8z"/><path d="m60.6 164.5h-7.3c-1.4 0-2.5-1.1-2.5-2.5s1.1-2.5 2.5-2.5h7.3c1.4 0 2.5 1.1 2.5 2.5s-1.1 2.5-2.5 2.5z"/><path d="m175.6 164.5h-7.3c-1.4 0-2.5-1.1-2.5-2.5s1.1-2.5 2.5-2.5h7.3c1.4 0 2.5 1.1 2.5 2.5s-1.1 2.5-2.5 2.5z"/><path d="m180 214h-131.1c-2.2 0-4.2-1.5-4.9-3.6-2.8-9.4-10.2-16.8-19.6-19.6-2.1-.7-3.6-2.6-3.6-4.9v-47.9c0-2.2 1.5-4.2 3.6-4.9 9.4-2.8 16.8-10.2 19.6-19.6.7-2.1 2.6-3.6 4.9-3.6h103.6c1.4 0 2.5 1.1 2.5 2.5v9.1c0 .4.3.7.7.7h32.2c.8 0 1.5.4 2 1 3.7 4.8 8.8 8.2 14.6 10 2.1.7 3.6 2.6 3.6 4.9v47.9c0 2.2-1.5 4.2-3.6 4.9-9.4 2.8-16.8 10.2-19.6 19.6-.7 2.1-2.7 3.5-4.9 3.5zm-131.1-99.1c-3.3 11-12 19.7-23 23v48c11 3.3 19.7 12 23 23h131.2c3.3-11 12-19.7 23-23v-48-.1c-6.4-1.9-12-5.6-16.3-10.7h-31c-3.1 0-5.7-2.6-5.7-5.7v-6.6z"/><path d="m114.4 199.3c-20.6 0-37.4-16.7-37.4-37.4 0-20.6 16.7-37.4 37.4-37.4 20.6 0 37.4 16.7 37.4 37.4 0 20.7-16.7 37.4-37.4 37.4zm0-69.7c-17.9 0-32.4 14.5-32.4 32.4s14.5 32.4 32.4 32.4 32.4-14.5 32.4-32.4c0-17.9-14.5-32.4-32.4-32.4z"/><path d="m250.8 62h-99.4c-2.9 0-5.2-2.4-5.2-5.2v-15.2c0-2.9 2.4-5.2 5.2-5.2h99.4c2.9 0 5.2 2.4 5.2 5.2v15.2c0 2.9-2.4 5.2-5.2 5.2zm-99.5-20.7c-.1 0-.2.1-.2.2v15.2c0 .1.1.2.2.2h99.4c.1 0 .2-.1.2-.2v-15.1c0-.1-.1-.2-.2-.2h-99.4z"/><path d="m246.4 127.2h-90.7c-3.1 0-5.7-2.6-5.7-5.7v-62c0-1.4 1.1-2.5 2.5-2.5h97.1c1.4 0 2.5 1.1 2.5 2.5v62c0 3.2-2.6 5.7-5.7 5.7zm-91.4-65.2v59.5c0 .4.3.7.7.7h90.7c.4 0 .7-.3.7-.7v-59.5z"/><path d="m238.8 41.3h-27.4c-1.4 0-2.5-1.1-2.5-2.5v-3.4c0-2.2-1-4.3-2.6-5.8-1-.9-1.1-2.5-.2-3.5.1-.1.3-.3.4-.4 6.9-4.8 16.8-9.8 24.6-6.2 5.6 2.6 9 9 10.2 19.1.2 1.4-.8 2.6-2.2 2.8-.1-.1-.2-.1-.3-.1zm-24.9-5h22.1c-1.1-6.6-3.4-10.7-6.9-12.3-5.1-2.3-12.4 1.1-17.4 4.3 1.4 2.1 2.2 4.6 2.2 7.2z"/><path d="m190.7 41.3h-27.4c-1.4 0-2.5-1.1-2.5-2.5 0-.1 0-.2 0-.3 1.1-10.1 4.6-16.5 10.2-19.1 7.8-3.5 17.7 1.4 24.6 6.2 1.1.8 1.4 2.3.6 3.5-.1.2-.2.3-.4.4-1.7 1.5-2.6 3.6-2.6 5.8v3.4c0 1.5-1.1 2.6-2.5 2.6zm-24.6-5h22.1v-.9c0-2.6.8-5 2.2-7.2-5-3.1-12.3-6.6-17.4-4.3-3.4 1.7-5.7 5.8-6.9 12.4z"/><path d="m211.4 41.3h-20.7c-1.4 0-2.5-1.1-2.5-2.5v-3.4c.1-7.1 5.9-12.8 12.9-12.7s12.7 5.7 12.7 12.7v3.4c.1 1.4-1 2.5-2.4 2.5zm-18.2-5h15.7v-.9c0-4.3-3.6-7.8-7.9-7.7-4.3 0-7.7 3.5-7.7 7.7v.9z"/><path d="m211.4 62h-20.7c-1.4 0-2.5-1.1-2.5-2.5v-20.7c0-1.4 1.1-2.5 2.5-2.5h20.7c1.4 0 2.5 1.1 2.5 2.5v20.7c0 1.4-1.1 2.5-2.5 2.5zm-18.2-5h15.7v-15.7h-15.7z"/><path d="m210.3 127.2h-18.6c-1.4 0-2.5-1.1-2.5-2.5v-65.2c0-1.4 1.1-2.5 2.5-2.5h18.6c1.4 0 2.5 1.1 2.5 2.5v65.2c0 1.4-1.1 2.5-2.5 2.5zm-16-5h13.6v-60.2h-13.6z"/></g></svg>