<svg id="Capa_1" enable-background="new 0 0 512 512" height="512" viewBox="0 0 512 512" width="512" xmlns="http://www.w3.org/2000/svg"><g><g><g><path d="m512 249.316h-256l-10.666 109.369 10.666 112.631h256z" fill="#b3ccff"/><path d="m0 249.316h256v222h-256z" fill="#cce6ff"/></g><g><path d="m437.334 377.316h-181.334l-10.666 13.368 10.666 16.632h181.334z" fill="#29376d"/><path d="m74.667 377.316h181.333v30h-181.333z" fill="#47568c"/></g><path d="m74.667 313.316h31.667v30h-31.667z" fill="#ff4d4d"/><path d="m136.334 313.316h77v30h-77z" fill="#f9f9f9"/></g><g><path d="m512 107.99-64.011-9.301-28.626-58.004-28.627 58.004-53.054 7.709-53.055-7.709-28.627-58.004-10.666 83.333 10.666 62.774 57.253 30.1-10.934-63.753 35.362-34.469 35.363 34.469-10.935 63.753 57.254-30.1 57.253 30.1-10.934-63.753z" fill="#fdae02"/><path d="m227.374 98.689-53.055 7.709-53.055-7.709-28.626-58.004-28.627 58.004-64.011 9.301 46.319 45.149-10.934 63.753 57.253-30.1 57.253 30.1-10.934-63.753 35.362-34.469 35.362 34.469-10.934 63.753 57.253-30.1v-146.107z" fill="#fdcb02"/></g></g></svg>