<?xml version="1.0"?>
<svg xmlns="http://www.w3.org/2000/svg" xmlns:xlink="http://www.w3.org/1999/xlink" xmlns:svgjs="http://svgjs.com/svgjs" version="1.1" width="512" height="512" x="0" y="0" viewBox="0 0 512 512" style="enable-background:new 0 0 512 512" xml:space="preserve" class=""><g><path xmlns="http://www.w3.org/2000/svg" d="m472 280h-56l-8 32h48v112h-72v32h104v-160h-16z" fill="#03040c" data-original="#4e62e6" style="" class=""/><path xmlns="http://www.w3.org/2000/svg" d="m395.249 352h-35.249l-16-40 32-40 48-16z" fill="#ffceb6" data-original="#ffceb6" style="" class=""/><path xmlns="http://www.w3.org/2000/svg" d="m222.70879 266.58228 17.6272-35.2544a77.99664 77.99664 0 0 0 2.65575-63.84836 77.99651 77.99651 0 0 1 -4.39174-15.41259l-10.08754-57.16258a85.81831 85.81831 0 0 0 -84.51246-70.90435 85.81831 85.81831 0 0 0 -84.51246 70.90435l-10.08754 57.16258a77.99651 77.99651 0 0 1 -4.39175 15.41255 77.99661 77.99661 0 0 0 2.65575 63.84839l17.62721 35.25441z" fill="#b1712c" data-original="#b1712c" style="" class=""/><path xmlns="http://www.w3.org/2000/svg" d="m360 352-64 32h-40l-56-32v104h-152l-24-40 12.67-126.67993a64.0101 64.0101 0 0 1 32.6-49.58007l17.39-9.65991 25.34-14.08009 8-24h48l8 24 25.34 14.08008 30.68 17.04a64.0171 64.0171 0 0 1 24.86 24.85992l31.12 56.02 56-16z" fill="#f78e00" data-original="#f78e00" style=""/><path xmlns="http://www.w3.org/2000/svg" d="m201.34 230.08-49.34 70.49-8 11.43-8-11.43-49.34-70.49 25.34-14.08 8-24h48l8 24z" fill="#c8dbf7" data-original="#c8dbf7" style="" class=""/><path xmlns="http://www.w3.org/2000/svg" d="m152 216v84.57l-8 11.43-8-11.43v-84.57z" fill="#898e97" data-original="#b2c6eb" style="" class=""/><path xmlns="http://www.w3.org/2000/svg" d="m176 216-32 24-32-24 8-24h48z" fill="#ffbfa1" data-original="#ffbfa1" style=""/><path xmlns="http://www.w3.org/2000/svg" d="m96 352v49.23l-16-3.69v-42.23a56.29487 56.29487 0 0 1 .48-79.11l1.86-1.86016 11.32 11.32007-1.86 1.85009a40.29322 40.29322 0 0 0 0 56.98l1.86 1.84985a8.00821 8.00821 0 0 1 2.34 5.66015z" fill="#e67a00" data-original="#e67a00" style="" class=""/><path xmlns="http://www.w3.org/2000/svg" d="m208 416h-16v-64a7.99952 7.99952 0 0 1 2.34375-5.65723l1.85791-1.85742a40.286 40.286 0 0 0 -.001-56.97168l-1.85693-1.85644 11.3125-11.31446 1.85791 1.85743a56.28564 56.28564 0 0 1 .48586 79.10839z" fill="#e67a00" data-original="#e67a00" style="" class=""/><path xmlns="http://www.w3.org/2000/svg" d="m24 456h464v32h-464z" fill="#b1712c" data-original="#b1712c" style="" class=""/><path xmlns="http://www.w3.org/2000/svg" d="m284.061 251.508h263.879v32.985h-263.879z" fill="#0b0c14" transform="matrix(.243 -.97 .97 .243 55.107 606.58)" data-original="#6173e8" style="" class=""/><circle xmlns="http://www.w3.org/2000/svg" cx="472" cy="296" fill="#5e606c" r="16" data-original="#8899f7" style="" class=""/><path xmlns="http://www.w3.org/2000/svg" d="m180.48291 428.94043-118.4868-27.34643a7.99982 7.99982 0 0 1 -5.99586-9.594 7.99984 7.99984 0 0 1 9.594-5.99585l118.48684 27.34647z" fill="#e67a00" data-original="#e67a00" style="" class=""/><path xmlns="http://www.w3.org/2000/svg" d="m224 424v32h-80v-43.69l16 3.69 40-16z" fill="#ffceb6" data-original="#ffceb6" style="" class=""/><path xmlns="http://www.w3.org/2000/svg" d="m200.57042 112v32.0001a56 56 0 0 1 -56 55.99994h-.00011a55.99994 55.99994 0 0 1 -55.99994-55.99994v-32.0001a83.22493 83.22493 0 0 0 64.98773-31.23473l7.01232-8.76527a40 40 0 0 1 40 40z" fill="#ffceb6" data-original="#ffceb6" style="" class=""/><circle xmlns="http://www.w3.org/2000/svg" cx="120.57" cy="120" fill="#91591c" r="8" data-original="#91591c" style="" class=""/><circle xmlns="http://www.w3.org/2000/svg" cx="168.57" cy="120" fill="#91591c" r="8" data-original="#91591c" style="" class=""/><path xmlns="http://www.w3.org/2000/svg" d="m136.57031 168h-8v-16h8a8.00916 8.00916 0 0 0 8-8v-8h16v8a24.0275 24.0275 0 0 1 -24 24z" fill="#c78869" data-original="#c78869" style="" class=""/></g></svg>
