<svg class="animated" id="freepik_stories-watch-app" xmlns="http://www.w3.org/2000/svg" viewBox="0 0 500 500" version="1.1" xmlns:xlink="http://www.w3.org/1999/xlink" xmlns:svgjs="http://svgjs.com/svgjs"><style>svg#freepik_stories-watch-app:not(.animated) .animable {opacity: 0;}svg#freepik_stories-watch-app.animated #freepik--Floor--inject-61 {animation: 1s 1 forwards cubic-bezier(.36,-0.01,.5,1.38) slideRight,1.5s Infinite  linear wind;animation-delay: 0s,1s;}svg#freepik_stories-watch-app.animated #freepik--Plants--inject-61 {animation: 1s 1 forwards cubic-bezier(.36,-0.01,.5,1.38) zoomOut;animation-delay: 0s;}svg#freepik_stories-watch-app.animated #freepik--Shadows--inject-61 {animation: 1s 1 forwards cubic-bezier(.36,-0.01,.5,1.38) slideRight;animation-delay: 0s;}svg#freepik_stories-watch-app.animated #freepik--Icons--inject-61 {animation: 1s 1 forwards cubic-bezier(.36,-0.01,.5,1.38) zoomIn,1.5s Infinite  linear wind;animation-delay: 0s,1s;}svg#freepik_stories-watch-app.animated #freepik--Device--inject-61 {animation: 1s 1 forwards cubic-bezier(.36,-0.01,.5,1.38) zoomOut,1.5s Infinite  linear heartbeat;animation-delay: 0s,1s;}svg#freepik_stories-watch-app.animated #freepik--Character--inject-61 {animation: 1s 1 forwards cubic-bezier(.36,-0.01,.5,1.38) zoomIn,1.5s Infinite  linear floating;animation-delay: 0s,1s;}svg#freepik_stories-watch-app.animated #freepik--Sparkles--inject-61 {animation: 1s 1 forwards cubic-bezier(.36,-0.01,.5,1.38) slideUp;animation-delay: 0s;}            @keyframes slideRight {                0% {                    opacity: 0;                    transform: translateX(30px);                }                100% {                    opacity: 1;                    transform: translateX(0);                }            }                    @keyframes wind {                0% {                    transform: rotate( 0deg );                }                25% {                    transform: rotate( 1deg );                }                75% {                    transform: rotate( -1deg );                }            }                    @keyframes zoomOut {                0% {                    opacity: 0;                    transform: scale(1.5);                }                100% {                    opacity: 1;                    transform: scale(1);                }            }                    @keyframes zoomIn {                0% {                    opacity: 0;                    transform: scale(0.5);                }                100% {                    opacity: 1;                    transform: scale(1);                }            }                    @keyframes heartbeat {                0% {                    transform: scale(1);                }                10% {                    transform: scale(1.1);                }                30% {                    transform: scale(1);                }                40% {                    transform: scale(1);                }                50% {                    transform: scale(1.1);                }                60% {                    transform: scale(1);                }                100% {                    transform: scale(1);                }            }                    @keyframes floating {                0% {                    opacity: 1;                    transform: translateY(0px);                }                50% {                    transform: translateY(-10px);                }                100% {                    opacity: 1;                    transform: translateY(0px);                }            }                    @keyframes slideUp {                0% {                    opacity: 0;                    transform: translateY(30px);                }                100% {                    opacity: 1;                    transform: inherit;                }            }        </style><g id="freepik--Floor--inject-61" style="transform-origin: 249.95px 358.24px 0px;" class="animable animator-active"><ellipse id="freepik--floor--inject-61" cx="249.95" cy="358.24" rx="239.7" ry="133.67" style="fill: rgb(250, 250, 250); transform-origin: 249.95px 358.24px 0px;" class="animable"></ellipse></g><g id="freepik--Plants--inject-61" style="transform-origin: 44.4844px 334.814px 0px;" class="animable"><g id="freepik--plants--inject-61" style="transform-origin: 44.4844px 334.814px 0px;" class="animable"><path d="M32.36,310.35c2.91,5.11,7.27,12.14,11.37,19.75,6.13,11.39,11.67,24.06,10.83,33.42l0,.94h0l.72,14.38.09,1.95,3.4-2L67.17,374c2.35-13.36,3.75-26.57.21-46.94-3.28-18.79-16.44-39.44-27.53-40.56C29.51,285.45,25.09,297.61,32.36,310.35Z" style="fill: #AF1B1B; transform-origin: 49.1484px 333.613px 0px;" id="elvh8fzdriin" class="animable"></path><g id="elruqc23eawbq"><path d="M32.36,310.35c2.91,5.11,7.27,12.14,11.37,19.75,6.13,11.39,11.67,24.06,10.83,33.42l0,.94h0l.72,14.38.09,1.95,3.4-2L67.17,374c2.35-13.36,3.75-26.57.21-46.94-3.28-18.79-16.44-39.44-27.53-40.56C29.51,285.45,25.09,297.61,32.36,310.35Z" style="fill: rgb(255, 255, 255); opacity: 0.25; transform-origin: 49.1484px 333.613px 0px;" class="animable" id="el0ogmkigbj4ll"></path></g><path d="M62.57,373.47a.67.67,0,0,1-.41-.69c4.34-34.8-10-66.89-24.55-78.5a.66.66,0,0,1-.1-.93.65.65,0,0,1,.93-.11c14.8,11.8,29.44,44.42,25,79.7a.67.67,0,0,1-.74.58Z" style="fill: rgb(255, 255, 255); transform-origin: 50.8066px 333.309px 0px;" id="eldyaw8rrj79d" class="animable"></path><path d="M19.61,332.38C20.76,339.12,33,347.05,41.1,358c7.31,9.87,10.5,19.87,10.23,25.19h0l4.07-2.35,3.4-2c1.86-24.68-5.53-40.74-15.09-48.74a27.55,27.55,0,0,0-7.3-4.43C25.68,321.37,18.24,324.29,19.61,332.38Z" style="fill: #AF1B1B; transform-origin: 39.2676px 353.441px 0px;" id="elsuhfjqwdedc" class="animable"></path><g id="elgh1vyqz3ij"><path d="M19.61,332.38C20.76,339.12,33,347.05,41.1,358c7.31,9.87,10.5,19.87,10.23,25.19h0l4.07-2.35,3.4-2c1.86-24.68-5.53-40.74-15.09-48.74a27.55,27.55,0,0,0-7.3-4.43C25.68,321.37,18.24,324.29,19.61,332.38Z" style="fill: rgb(255, 255, 255); opacity: 0.6; transform-origin: 39.2676px 353.441px 0px;" class="animable" id="ely6jvvla9iu8"></path></g><path d="M55.17,378.8a.66.66,0,0,1-.4-.6c-.42-28.28-16.62-43.68-25.13-47.88a.66.66,0,0,1,.59-1.19c9.41,4.64,25.44,20.19,25.87,49.05a.67.67,0,0,1-.66.67A.81.81,0,0,1,55.17,378.8Z" style="fill: rgb(255, 255, 255); transform-origin: 42.6855px 353.957px 0px;" id="elqlvxidt45n" class="animable"></path></g></g><g id="freepik--Shadows--inject-61" style="transform-origin: 235.983px 397.689px 0px;" class="animable"><path id="freepik--Shadow--inject-61" d="M421.62,390.78l-94.31,54.45c-10.34,6-27.11,6-37.46,0l-32.81-19c-10.35-6-10.35-15.65,0-21.63l94.31-54.45c10.34-6,27.11-6,37.45,0l32.82,18.95C432,375.12,432,384.81,421.62,390.78Z" style="fill: rgb(235, 235, 235); transform-origin: 339.342px 397.689px 0px;" class="animable"></path><ellipse id="freepik--shadow--inject-61" cx="118.59" cy="401.61" rx="76.03" ry="43.9" style="fill: rgb(235, 235, 235); transform-origin: 118.59px 401.61px 0px;" class="animable"></ellipse></g><g id="freepik--Icons--inject-61" style="transform-origin: 311.178px 59.8555px 0px;" class="animable"><g id="freepik--Heart--inject-61" style="transform-origin: 358.844px 71.4043px 0px;" class="animable"><path d="M360.66,88.58a.53.53,0,0,1-.24-.06l-5.5-2.94h0c-4.15-2.22-15.16-8.12-16-18.67a10.29,10.29,0,0,1,19.66-5,10.38,10.38,0,0,1,9.17-7.65,10.26,10.26,0,0,1,11,9.47c.84,10.55-9.12,18.14-12.87,21l-5,3.79A.47.47,0,0,1,360.66,88.58Zm-5.27-3.88,5.22,2.79,4.72-3.59c3.63-2.77,13.27-10.11,12.48-20.12a9.29,9.29,0,0,0-3.25-6.38,9.13,9.13,0,0,0-6.72-2.17,9.35,9.35,0,0,0-8.58,8.83.5.5,0,0,1-.46.47.48.48,0,0,1-.52-.39,9.3,9.3,0,0,0-18.36,2.69c.79,10,11.46,15.72,15.47,17.87l-.23.44Z" style="fill: rgb(224, 224, 224); transform-origin: 358.844px 71.4043px 0px;" id="eluya11o821ia" class="animable"></path></g><path id="freepik--musical-note--inject-61" d="M279.57,39.77l-5.71,17a4.39,4.39,0,0,0-1.37-.62,4.75,4.75,0,0,0-5.7,2.88,4,4,0,0,0,3,5.16,4.75,4.75,0,0,0,5.7-2.89l4.64-13.76,16.22.29h0l-4.57,13.65a4.39,4.39,0,0,0-1.37-.62,4.75,4.75,0,0,0-5.7,2.88,4,4,0,0,0,3,5.16,4.77,4.77,0,0,0,5.7-2.89h0l8.17-24.47Z" style="fill: rgb(224, 224, 224); transform-origin: 284.086px 54.418px 0px;" class="animable"></path><path id="freepik--Phone--inject-61" d="M426,49.73c-.7-.64-1.44-1.22-2.16-1.81-1.45-1.18-2.78-1.27-3.86.63a1.57,1.57,0,0,1-2.35.64,11.31,11.31,0,0,1-5.46-6.14c-.49-1.28-.48-2.42.67-3.32A2.41,2.41,0,0,0,414,37.65c-.07-1.36-2.92-5.89-4.05-6.37a1.75,1.75,0,0,0-1.4,0c-2.65,1-3.74,3.53-2.69,6.5,3.13,8.87,8,13.51,15.55,17.28a8,8,0,0,0,1.16.38c1.72,0,4.4-.37,5-2.28s-.63-2.56-1.56-3.43Z" style="fill: rgb(224, 224, 224); transform-origin: 416.598px 43.2871px 0px;" class="animable"></path><g id="freepik--Gear--inject-61" style="transform-origin: 214.578px 60.1328px 0px;" class="animable"><path d="M213.88,80.09h0a20.42,20.42,0,0,1-3.27-.4,19.61,19.61,0,0,1-3.17-.92,1,1,0,0,1-.65-1.19l.55-2.71a16.61,16.61,0,0,1-3.72-2.5l-2.29,1.52a1.05,1.05,0,0,1-1.35-.16,20,20,0,0,1-3.64-5.48,1.07,1.07,0,0,1,.39-1.31l2.3-1.52a16.9,16.9,0,0,1-.86-4.4l-2.7-.55a1,1,0,0,1-.84-1.06,21.25,21.25,0,0,1,.38-3.29A20.44,20.44,0,0,1,195.9,53a1,1,0,0,1,1.2-.65l2.7.55a16.11,16.11,0,0,1,2.51-3.72l-1.53-2.3a1.06,1.06,0,0,1,.16-1.35,20,20,0,0,1,5.48-3.63,1.06,1.06,0,0,1,1.31.39l1.52,2.29a16.25,16.25,0,0,1,4.4-.85l.55-2.7a1,1,0,0,1,1.07-.85,19.34,19.34,0,0,1,3.27.4,20.33,20.33,0,0,1,3.17.91,1.06,1.06,0,0,1,.65,1.2l-.55,2.7a16.32,16.32,0,0,1,3.72,2.51l2.29-1.52a1.06,1.06,0,0,1,1.36.16A20.13,20.13,0,0,1,232.81,52a1.06,1.06,0,0,1-.39,1.31l-2.3,1.52a16.26,16.26,0,0,1,.86,4.41l2.7.55a1.05,1.05,0,0,1,.85,1.06,20.42,20.42,0,0,1-.4,3.27,20.86,20.86,0,0,1-.92,3.17,1,1,0,0,1-1.2.66h0l-2.69-.55a16.7,16.7,0,0,1-2.51,3.71l1.52,2.3a1.05,1.05,0,0,1-.16,1.35,19.81,19.81,0,0,1-5.48,3.63,1.06,1.06,0,0,1-1.31-.38l-1.52-2.3a16.34,16.34,0,0,1-4.4.85l-.55,2.71A1.06,1.06,0,0,1,213.88,80.09Zm-10.25-8.86a.52.52,0,0,1,.35.14,15.31,15.31,0,0,0,4.1,2.76.5.5,0,0,1,.28.56l-.63,3.09a15,15,0,0,0,3,.93,19.7,19.7,0,0,0,3.11.38l.68-3.14a.5.5,0,0,1,.47-.4,15.31,15.31,0,0,0,4.86-.94.5.5,0,0,1,.59.19l1.74,2.63A17.68,17.68,0,0,0,227.49,74l-1.73-2.69a.5.5,0,0,1,.05-.62,15.42,15.42,0,0,0,2.77-4.1.51.51,0,0,1,.55-.28l3.08.63a.08.08,0,0,0,.07,0,20.35,20.35,0,0,0,.87-3,19.58,19.58,0,0,0,.38-3.1l-3.13-.68a.5.5,0,0,1-.4-.48,15.65,15.65,0,0,0-.95-4.86.5.5,0,0,1,.19-.59l2.63-1.73a17.6,17.6,0,0,0-3.42-5.27l-2.7,1.73a.48.48,0,0,1-.61,0A15.17,15.17,0,0,0,221,46.09a.49.49,0,0,1-.28-.55l.63-3.09a15.5,15.5,0,0,0-3-.94,19.54,19.54,0,0,0-3.11-.37l-.68,3.14a.49.49,0,0,1-.47.4,15,15,0,0,0-4.86.94.52.52,0,0,1-.59-.2L206.9,42.8a17.7,17.7,0,0,0-5.28,3.42l1.74,2.69a.51.51,0,0,1-.06.62,15.75,15.75,0,0,0-2.77,4.1.49.49,0,0,1-.55.28l-3.08-.62a15,15,0,0,0-1,3,19.11,19.11,0,0,0-.36,3.12l3.13.68a.5.5,0,0,1,.4.47,15.41,15.41,0,0,0,.94,4.85.52.52,0,0,1-.19.6l-2.63,1.74a17.75,17.75,0,0,0,3.43,5.27l2.69-1.73A.46.46,0,0,1,203.63,71.23Zm11.06-1.49a9.67,9.67,0,0,1-8.16-4.32,9.77,9.77,0,0,1,0-10.63,9.15,9.15,0,0,1,6.32-4.19,9.7,9.7,0,0,1,9.82,14.83,9.17,9.17,0,0,1-6.33,4.19h0A11,11,0,0,1,214.69,69.74Zm-.27-18.26a10.36,10.36,0,0,0-1.46.11,8.11,8.11,0,0,0-5.62,3.72,8.69,8.69,0,0,0,8.81,13.32h0a8.11,8.11,0,0,0,5.62-3.72,8.79,8.79,0,0,0,0-9.56A8.69,8.69,0,0,0,214.42,51.48Z" style="fill: rgb(224, 224, 224); transform-origin: 214.578px 60.1328px 0px;" id="elp305tx8h3g" class="animable"></path></g></g><g id="freepik--Device--inject-61" style="transform-origin: 343.197px 241.094px 0px;" class="animable"><g id="freepik--smart-watch--inject-61" style="transform-origin: 343.197px 241.094px 0px;" class="animable"><g id="freepik--Strap--inject-61" style="transform-origin: 308.67px 326.014px 0px;" class="animable"><path d="M301.29,321.27s-3.2,9.37-1.71,17.67c2,11.26,8,18.17,19.81,25-.08-.05-41.4-23.91-57.14-33.77s-15.13-21.57-16.07-30.33-4.84-13.45-9.78-16.32Z" style="fill: rgb(38, 50, 56); transform-origin: 277.895px 323.73px 0px;" id="elg8si2vxt9nu" class="animable"></path><path d="M301.29,321.27l5.61,1.9c0,.08-2.68,8.08-1.49,14.72,1.63,9.07,6.22,14.74,16.95,20.93,13.18,7.62,35.89,3.65,55.22-9.63l3.36,4.88c-22.28,15.31-47.2,18.17-61.54,9.88-11.86-6.84-17.8-13.75-19.82-25C298.09,330.64,301.29,321.27,301.29,321.27Z" style="fill: rgb(55, 71, 79); transform-origin: 340.063px 344.889px 0px;" id="el6cr5zsygzdd" class="animable"></path></g><path d="M244.21,171.79l-19.35,84.89c-2.71,11.93,4.57,27.06,16.25,33.81L298,323.35c5.84,3.38,11.67,4,16.39,2.3l20-7.19c4.68-1.71,8.25-5.72,9.61-11.66l19.34-84.89c2.71-11.92-4.56-27.06-16.24-33.81L290.2,155.24c-5.67-3.27-11.33-4-16-2.44-3.65,1.2-16.87,6.07-20.34,7.31C249.17,161.8,245.57,165.83,244.21,171.79Z" style="fill: rgb(38, 50, 56); transform-origin: 294.1px 239.287px 0px;" id="elv02m10wudop" class="animable"></path><path d="M314.42,325.65l15.46-5.7,3.88-1.41a15,15,0,0,0,3.59-1.75,14.59,14.59,0,0,0,4.77-5.42,23,23,0,0,0,2.05-6.32l1.44-6.43,2.88-12.86,8.78-38.14,3-12.86,3.1-12.85-2.77,12.87-2.89,12.87-8.55,38.15-3,12.85-1.49,6.43a23.44,23.44,0,0,1-2.13,6.39,15,15,0,0,1-4.95,5.54,15.42,15.42,0,0,1-3.7,1.78L330,320.18Z" id="eln3dfxgo8r99" style="transform-origin: 338.896px 273.779px 0px;" class="animable"></path><path d="M321.5,217.15l39.14-14.08a34.75,34.75,0,0,0-13.52-15L290.2,155.24c-5.67-3.27-11.33-4-16-2.44-3.65,1.2-16.87,6.07-20.34,7.31-4.72,1.69-8.32,5.72-9.68,11.68l-3.51,15.12Z" style="fill: rgb(55, 71, 79); transform-origin: 300.656px 184.58px 0px;" id="elvof31kcvasp" class="animable"></path><path d="M298,323.35l-56.92-32.86c-11.68-6.74-19-21.88-16.25-33.81l19.35-84.89c2.71-11.92,14.38-16.12,26.07-9.38l56.91,32.86c11.69,6.75,19,21.89,16.25,33.81L324.09,314C321.38,325.9,309.71,330.1,298,323.35Z" style="fill: rgb(69, 90, 100); transform-origin: 284.119px 242.885px 0px;" id="elt60qragpat8" class="animable"></path><path d="M334.2,212.58c2.62,5.46,3.51,11.32,2.43,16.09l-19.35,84.89c-.84,3.7-2.74,6.33-5.21,7.22s-5.94.19-9.57-1.9L245.58,286a29.86,29.86,0,0,1-11.47-12.83c-2.63-5.47-3.52-11.33-2.43-16.1L251,172.2c.84-3.7,2.73-6.34,5.19-7.22s6-.19,9.59,1.9l56.91,32.87A30,30,0,0,1,334.2,212.58Z" style="fill: rgb(38, 50, 56); transform-origin: 284.152px 242.883px 0px;" id="el0aiqg49lnyfj" class="animable"></path><path d="M334.2,212.58c2.62,5.46,3.51,11.32,2.43,16.09l-19.35,84.89c-.84,3.7-2.74,6.33-5.21,7.22s-5.94.19-9.57-1.9L245.58,286a29.86,29.86,0,0,1-11.47-12.83c-2.63-5.47-3.52-11.33-2.43-16.1L251,172.2c.84-3.7,2.73-6.34,5.19-7.22s6-.19,9.59,1.9l56.91,32.87A30,30,0,0,1,334.2,212.58Z" style="fill: rgb(38, 50, 56); transform-origin: 284.152px 242.883px 0px;" id="elmorkelowi2" class="animable"></path><g id="el17pic7e68de"><ellipse cx="284.15" cy="242.88" rx="14.44" ry="20.7" style="fill: rgb(250, 250, 250); transform-origin: 284.15px 242.88px 0px; transform: rotate(-8deg);" class="animable" id="elzo8fx9reqra"></ellipse></g><path d="M285.63,264a12,12,0,0,1-6-1.7c-7.86-4.54-12.28-16.89-9.86-27.54,1.33-5.83,4.48-10.21,8.67-12a11.24,11.24,0,0,1,10.3.8C296.57,228,301,240.38,298.57,251c-1.33,5.82-4.49,10.21-8.67,12A10.59,10.59,0,0,1,285.63,264Zm-3-41.19a9.66,9.66,0,0,0-3.87.81c-3.89,1.7-6.84,5.84-8.1,11.36-2.33,10.26,1.88,22.13,9.39,26.47a10.26,10.26,0,0,0,9.42.75c3.89-1.7,6.84-5.84,8.1-11.35,2.33-10.26-1.88-22.14-9.39-26.47A11,11,0,0,0,282.67,222.78Z" style="fill: #AF1B1B; transform-origin: 284.174px 242.936px 0px;" id="elroglogw0zq" class="animable"></path><path d="M284.15,243.87a.76.76,0,0,1-.21,0,1,1,0,0,1-.75-1.18L286.53,228a1,1,0,1,1,1.92.43l-3.34,14.67A1,1,0,0,1,284.15,243.87Z" style="fill: #AF1B1B; transform-origin: 285.848px 235.459px 0px;" id="elzjqn2i102c" class="animable"></path><path d="M290.33,251.25a1,1,0,0,1-.75-.35l-6.18-7.39a1,1,0,0,1,.12-1.38,1,1,0,0,1,1.39.12l6.18,7.39A1,1,0,0,1,291,251,.93.93,0,0,1,290.33,251.25Z" style="fill: #AF1B1B; transform-origin: 287.248px 246.576px 0px;" id="elljcnbmf7k9f" class="animable"></path><path d="M275.92,249.1a.37.37,0,0,1-.21-.67l8.23-5.85a.36.36,0,0,1,.51.09.36.36,0,0,1-.08.51L276.14,249A.36.36,0,0,1,275.92,249.1Z" style="fill: rgb(69, 90, 100); transform-origin: 280.041px 245.807px 0px;" id="elfesf4qgk2de" class="animable"></path><path d="M286.64,244.32c-.43,1.86-1.88,2.73-3.25,1.94a4.62,4.62,0,0,1-1.72-4.81c.43-1.87,1.88-2.74,3.25-1.95A4.64,4.64,0,0,1,286.64,244.32Z" style="fill: #AF1B1B; transform-origin: 284.156px 242.881px 0px;" id="elm3avvt9c5tr" class="animable"></path><path d="M330.59,235.49c-2.11,9.29-9.35,13.62-16.18,9.68s-10.64-14.65-8.53-23.94,9.36-13.62,16.18-9.68S332.7,226.21,330.59,235.49Z" style="fill: #AF1B1B; transform-origin: 318.234px 228.359px 0px;" id="elinbmjsc4rdc" class="animable"></path><path d="M320.54,218.2c-3-1.73-6.19.17-7.13,4.27-1.66,7.33,2.51,16.05,2.51,16.05a14.22,14.22,0,0,0,8.38-9.76C325.24,224.66,323.56,219.94,320.54,218.2ZM318,229.52c-1.65-1-2.58-3.55-2.07-5.81s2.27-3.31,3.93-2.35,2.58,3.56,2.06,5.81S319.63,230.48,318,229.52Z" style="fill: rgb(250, 250, 250); transform-origin: 318.789px 228.039px 0px;" id="el8fkj4li0ltr" class="animable"></path><g id="elxpifmd85jnk"><ellipse cx="313.59" cy="263.7" rx="8.64" ry="12.39" style="fill: rgb(250, 250, 250); transform-origin: 313.59px 263.7px 0px; transform: rotate(-8.04906deg);" class="animable" id="elc0nz4u8rjdh"></ellipse></g><path d="M315.17,270.46a5.8,5.8,0,0,1-2.85-.82c-.16-.1-.32-.2-.47-.31a2.59,2.59,0,0,1-2.09.26,2.84,2.84,0,0,1-1.94-1.78.36.36,0,0,1,.11-.41.36.36,0,0,1,.42,0,.79.79,0,0,0,.63.08,1,1,0,0,0,.56-.49,9.46,9.46,0,0,1-1.49-7.11,4.78,4.78,0,0,1,7.46-3.26h0a9.55,9.55,0,0,1,4.27,9.79,5.07,5.07,0,0,1-2.82,3.71A4.55,4.55,0,0,1,315.17,270.46Zm-3.32-1.95a.44.44,0,0,1,.22.07c.2.15.41.29.62.42a4.06,4.06,0,0,0,6.38-2.79,8.79,8.79,0,0,0-3.93-9,4.05,4.05,0,0,0-6.37,2.79,8.71,8.71,0,0,0,1.5,6.7.38.38,0,0,1,0,.37,1.87,1.87,0,0,1-1.1,1.06,1.65,1.65,0,0,1-.32.06,2.14,2.14,0,0,0,1.07.67,1.86,1.86,0,0,0,1.66-.28A.33.33,0,0,1,311.85,268.51Z" style="fill: #AF1B1B; transform-origin: 313.867px 263.113px 0px;" id="elmty0ly5ofv8" class="animable"></path><g id="elpl7pl5mfcf"><ellipse cx="255.8" cy="224.22" rx="8.31" ry="11.92" style="fill: rgb(250, 250, 250); transform-origin: 255.8px 224.22px 0px; transform: rotate(-8deg);" class="animable" id="elyfww8blbfc"></ellipse></g><g id="eltsph064y6x"><ellipse cx="253.18" cy="220.96" rx="2.56" ry="3.67" style="fill: #AF1B1B; transform-origin: 253.18px 220.96px 0px; transform: rotate(-8.04906deg);" class="animable" id="el3hjl6v4huir"></ellipse></g><path d="M260.61,228.05l-.89-.51.48-2.12a4.35,4.35,0,0,0-1.91-4.49h0c-1.34-.77-2.76,0-3.16,1.78v0a2.53,2.53,0,0,0-1-1.19h0c-1-.56-2,0-2.27,1.28l0,.14-1.24-.71c-.64-.37-1.31,0-1.5.84a2.11,2.11,0,0,0,.81,2.18l10.06,5.8c.63.37,1.31,0,1.5-.84A2.09,2.09,0,0,0,260.61,228.05Z" style="fill: rgb(224, 224, 224); transform-origin: 255.301px 225.914px 0px;" id="el93i926fag6" class="animable"></path><path d="M287,288.1c-1.42,6.27-6.31,9.2-10.92,6.54s-7.18-9.9-5.76-16.17,6.32-9.19,10.92-6.53S288.46,281.84,287,288.1Z" style="fill: rgb(250, 250, 250); transform-origin: 278.668px 283.289px 0px;" id="elfh562aou89g" class="animable"></path><path d="M284.41,286c.06,0,.12,0,.14-.13a12.55,12.55,0,0,0,.13-1.4,13.85,13.85,0,0,0,0-1.44.2.2,0,0,0-.13-.18l-1-.2a9.41,9.41,0,0,0-.54-2.15l.74-.84a.24.24,0,0,0,0-.25,9.79,9.79,0,0,0-1.37-2.29.1.1,0,0,0-.17,0l-.74.85a5.4,5.4,0,0,0-1.42-1.14l0-1.39a.23.23,0,0,0-.11-.22,5.06,5.06,0,0,0-1-.32,4.5,4.5,0,0,0-1-.09c-.07,0-.12.08-.12.17l0,1.39a3.46,3.46,0,0,0-1.48.55l-.67-1.13c-.05-.08-.12-.1-.18-.06a6,6,0,0,0-1.49,1.71.25.25,0,0,0,0,.25l.67,1.13a7.22,7.22,0,0,0-.66,1.9l-1-.2c-.07,0-.12,0-.14.13a10.55,10.55,0,0,0-.13,1.4,11.54,11.54,0,0,0,0,1.44.2.2,0,0,0,.13.18l1,.2a9.41,9.41,0,0,0,.54,2.15l-.74.84a.24.24,0,0,0,0,.25,9.79,9.79,0,0,0,1.37,2.29.1.1,0,0,0,.17,0l.74-.85a5.4,5.4,0,0,0,1.42,1.14l0,1.39a.25.25,0,0,0,.1.22,5.38,5.38,0,0,0,1,.32,4.5,4.5,0,0,0,1,.09c.06,0,.11-.08.12-.17l0-1.39a3.51,3.51,0,0,0,1.48-.55l.67,1.13a.11.11,0,0,0,.17.06,5.87,5.87,0,0,0,1.5-1.72.23.23,0,0,0,0-.24l-.67-1.13a7.22,7.22,0,0,0,.66-1.9Zm-5,1.17c-2.27.47-4.19-2.82-3.34-5.81a2.68,2.68,0,0,1,1.87-2c2.27-.47,4.19,2.82,3.33,5.81A2.69,2.69,0,0,1,279.43,287.21Z" style="fill: rgb(224, 224, 224); transform-origin: 278.707px 283.26px 0px;" id="elcjg9seea1i4" class="animable"></path><g id="elb1qmnujlotk"><ellipse cx="304.28" cy="293.7" rx="11.41" ry="16.35" style="fill: rgb(69, 90, 100); transform-origin: 304.28px 293.7px 0px; transform: rotate(-8deg);" class="animable" id="el2n6ohq7xmph"></ellipse></g><path d="M307.45,287.29c.83.47,1.7-.05,2-1.17a2.8,2.8,0,0,0-1-2.9c-.83-.48-1.7,0-2,1.17A2.8,2.8,0,0,0,307.45,287.29Zm3.83,7.58c0-.46-.36-.81-.68-.78l-2.53.22-.52-4.5h0l-.06-.28a1.91,1.91,0,0,0-.07-.28,3.22,3.22,0,0,0-1.72-2.11l-3.85-2.22c-.32-.18-.65,0-.74.44l-1,4.18a1.07,1.07,0,0,0,.39,1.1c.32.18.65,0,.75-.44l.77-3.42,1.82,1.05a58.21,58.21,0,0,0-2.68,7.26l-1,3.13-3.21,2.1a1,1,0,0,0-.23,1.1.83.83,0,0,0,.34.44.44.44,0,0,0,.47,0l3.38-2.21a.66.66,0,0,0,.25-.35l1.25-3.82,1.49.47,1.43,4.31-3,1.44a.9.9,0,0,0-.29,1.06.84.84,0,0,0,.36.51.45.45,0,0,0,.42,0l3.56-1.72a.64.64,0,0,0,.32-.43,1.2,1.2,0,0,0,0-.65l-.92-2.79a7.14,7.14,0,0,1-.22-3.85v0a10.61,10.61,0,0,1,1-2.33l.44,3.8a1,1,0,0,0,.41.72.53.53,0,0,0,.27.06l3.12-.28C311.12,295.73,311.34,295.33,311.28,294.87Z" style="fill: #AF1B1B; transform-origin: 303.967px 293.178px 0px;" id="eldluktzxiqew" class="animable"></path><g id="elgbbx2gxsojg"><path d="M307.45,287.29c.83.47,1.7-.05,2-1.17a2.8,2.8,0,0,0-1-2.9c-.83-.48-1.7,0-2,1.17A2.8,2.8,0,0,0,307.45,287.29Zm3.83,7.58c0-.46-.36-.81-.68-.78l-2.53.22-.52-4.5h0l-.06-.28a1.91,1.91,0,0,0-.07-.28,3.22,3.22,0,0,0-1.72-2.11l-3.85-2.22c-.32-.18-.65,0-.74.44l-1,4.18a1.07,1.07,0,0,0,.39,1.1c.32.18.65,0,.75-.44l.77-3.42,1.82,1.05a58.21,58.21,0,0,0-2.68,7.26l-1,3.13-3.21,2.1a1,1,0,0,0-.23,1.1.83.83,0,0,0,.34.44.44.44,0,0,0,.47,0l3.38-2.21a.66.66,0,0,0,.25-.35l1.25-3.82,1.49.47,1.43,4.31-3,1.44a.9.9,0,0,0-.29,1.06.84.84,0,0,0,.36.51.45.45,0,0,0,.42,0l3.56-1.72a.64.64,0,0,0,.32-.43,1.2,1.2,0,0,0,0-.65l-.92-2.79a7.14,7.14,0,0,1-.22-3.85v0a10.61,10.61,0,0,1,1-2.33l.44,3.8a1,1,0,0,0,.41.72.53.53,0,0,0,.27.06l3.12-.28C311.12,295.73,311.34,295.33,311.28,294.87Z" style="fill: rgb(255, 255, 255); opacity: 0.2; transform-origin: 303.967px 293.178px 0px;" class="animable" id="elt7z6isnuejp"></path></g><g id="elnpat8qqfar"><ellipse cx="253.07" cy="262.06" rx="13.69" ry="19.63" style="fill: #AF1B1B; transform-origin: 253.07px 262.06px 0px; transform: rotate(-8deg);" class="animable" id="elgelx294tfds"></ellipse></g><path id="freepik--musical-note--inject-61" d="M247.91,251.75,247,265.48a2.41,2.41,0,0,0-.85-.45c-1.42-.38-2.68.92-2.81,2.9s.92,3.91,2.35,4.3,2.69-.92,2.82-2.91l.81-12.31,9.12-.85h0l-.79,12.21a2.43,2.43,0,0,0-.85-.46c-1.42-.38-2.69.92-2.81,2.91s.92,3.9,2.35,4.29,2.69-.92,2.81-2.9h0l1.31-20.39Z" style="fill: rgb(250, 250, 250); transform-origin: 251.895px 263.465px 0px;" class="animable"></path><g id="elxv7o1ibqr1b"><ellipse cx="265.33" cy="191.47" rx="10.78" ry="15.46" style="fill: rgb(69, 90, 100); transform-origin: 265.33px 191.47px 0px; transform: rotate(-8deg);" class="animable" id="elkq7t5j9yleo"></ellipse></g><path d="M266.46,197.76c-.39,1.69-1.72,2.49-3,1.77a4.21,4.21,0,0,1-1.57-4.38c.39-1.7,1.72-2.5,3-1.78A4.22,4.22,0,0,1,266.46,197.76Z" style="fill: rgb(250, 250, 250); transform-origin: 264.176px 196.451px 0px;" id="elj5g3rp8i4y9" class="animable"></path><path d="M266,188.34a4.65,4.65,0,0,0-6.24,1.25,1.69,1.69,0,0,0-.1,1.67h0c.32.71,1,.9,1.4.39a3.27,3.27,0,0,1,4.39-.9,7,7,0,0,1,3,5.18c.1.8.7,1.34,1.23,1.13h0a1.25,1.25,0,0,0,.58-1.38C269.9,192.54,268.32,189.65,266,188.34Z" style="fill: rgb(250, 250, 250); transform-origin: 264.891px 192.373px 0px;" id="el0hb1aaqrgksj" class="animable"></path><path d="M267.16,183.41a7.39,7.39,0,0,0-9.45,1.38,1.63,1.63,0,0,0-.18,1.73h0c.32.69,1,.88,1.37.44a6,6,0,0,1,7.71-1.14c2.77,1.59,4.76,5,5.47,8.75.14.77.71,1.26,1.22,1.06h0a1.34,1.34,0,0,0,.56-1.52C273,189.52,270.55,185.37,267.16,183.41Z" style="fill: rgb(250, 250, 250); transform-origin: 265.639px 188.98px 0px;" id="eleagxlgpai6i" class="animable"></path><g id="elb713d7fbds8"><ellipse cx="292.62" cy="205.65" rx="8.3" ry="11.9" style="fill: rgb(250, 250, 250); transform-origin: 292.62px 205.65px 0px; transform: rotate(-8deg);" class="animable" id="elvp7ic893q"></ellipse></g><path id="freepik--path17-6--inject-61" d="M296.26,211.24c-.24-.53-.51-1-.77-1.55-.53-1-1.13-1.44-1.86-.69-.42.41-.81.21-1.17-.28a9.44,9.44,0,0,1-1.76-4.8c-.06-.82.08-1.44.72-1.62a1,1,0,0,0,.8-.82,11.69,11.69,0,0,0-1.08-4.55.94.94,0,0,0-.65-.37c-1.35-.15-2.16.92-2,2.82a26.45,26.45,0,0,0,5.15,14.55,3.5,3.5,0,0,0,.49.51,2,2,0,0,0,2.47-.91c.48-.85,0-1.56-.3-2.29Z" style="fill: rgb(69, 90, 100); transform-origin: 292.637px 205.561px 0px;" class="animable"></path><path d="M353.11,233.37a1.45,1.45,0,0,1,.1,1l-15.49,68a2.68,2.68,0,0,1-2.82,1.75c-1.32-.08-2.19-1-2-2l15.5-68a2.7,2.7,0,0,1,2.82-1.75A2.13,2.13,0,0,1,353.11,233.37Z" style="fill: rgb(55, 71, 79); transform-origin: 343.064px 268.246px 0px;" id="elaaiqmyu294" class="animable"></path><g id="el78456qz7a7"><path d="M304.59,317.67l-20.11-11.88L264.33,294l-10.09-5.88-5.05-2.93a28,28,0,0,1-4.77-3.21,30.65,30.65,0,0,1-7.16-8.92,28.84,28.84,0,0,1-3.36-10.9,19.94,19.94,0,0,1,.24-5.67l1.27-5.69L238,239.4l5.13-22.78,5-22.8,5-22.83-5.42,22.72-5.32,22.74-5.26,22.75-2.62,11.38-1.3,5.71a20.86,20.86,0,0,0-.27,5.95,29.58,29.58,0,0,0,3.52,11.26,31.66,31.66,0,0,0,7.4,9.16,29.38,29.38,0,0,0,4.91,3.28l5.06,2.91,10.14,5.8,20.29,11.56Z" style="fill: rgb(255, 255, 255); opacity: 0.4; transform-origin: 268.715px 244.33px 0px;" class="animable" id="eld3lfilgsl3d"></path></g><g id="freepik--strap--inject-61" style="transform-origin: 369.572px 238.154px 0px;" class="animable"><path d="M434.7,149.09l-.61-.34L437,143.6l.67.38.13.08a43.63,43.63,0,0,1,15.14,15.7c9.47,16.41,11.6,41.52,6.55,76-4.27,29.1-11.09,49-15.22,59.08l-8.71,5s11.83-22.42,18.09-65C460.47,188.28,454,160.87,434.7,149.09Z" style="fill: rgb(55, 71, 79); transform-origin: 448.117px 221.721px 0px;" id="ellpx2relx97m" class="animable"></path><path d="M405,209c-6.25,42.55-18.08,65-18.08,65l48.61,25.87s11.83-22.42,18.09-65c6.84-46.59.32-74-18.93-85.78-7.48-4.32-14-5.73-24.15-5.48a42.13,42.13,0,0,0-7.6,1c.19.5.43,1.22.89,2.9C408.47,162.24,408.89,182.52,405,209Z" style="fill: rgb(38, 50, 56); transform-origin: 421.59px 221.727px 0px;" id="elvc7damee8gg" class="animable"></path><path d="M438.4,258.87c8.86-40.55,6.29-69.58,5.3-77.48l5.51-3.18s5.78,32.42-5,81.92c-10.58,48.34-39.34,79.49-63.24,93.95l-3.34-4.88C390.28,341.55,426,315.44,438.4,258.87Z" style="fill: rgb(55, 71, 79); transform-origin: 414.193px 266.145px 0px;" id="el98b9qe2p9g" class="animable"></path><path d="M449.21,178.21a164.77,164.77,0,0,1,1.66,25c0,8.37-.52,16.73-1.36,25.06s-2.13,16.6-3.67,24.83l-1.24,6.15c-.42,2.05-1,4.07-1.46,6.11-.9,4.1-2.26,8.06-3.45,12.08a167.85,167.85,0,0,1-9.87,23.09,158.58,158.58,0,0,1-13.48,21.17c-10.14,13.3-22.61,25-37.11,33.36a117.84,117.84,0,0,0,20-15.05A137.51,137.51,0,0,0,416,321.48a159.25,159.25,0,0,0,13.35-21.16,168.5,168.5,0,0,0,9.75-23.05c1.2-4,2.58-7.94,3.49-12,.49-2,1.05-4,1.48-6.09l1.26-6.14c1.56-8.2,2.92-16.46,3.76-24.77s1.4-16.67,1.47-25A166,166,0,0,0,449.21,178.21Z" id="el24o10x2gtm1" style="transform-origin: 415.055px 266.635px 0px;" class="animable"></path><path d="M305.43,329.81c6.25,1.08,19,0,30.55-6.07,18-9.4,44.83-32.06,57.67-90.72,8.85-40.54,6.28-69.58,5.3-77.48l5.51-3.17s.41,2.37.82,6.83l38.42,22.19c1,7.9,3.56,36.93-5.3,77.48-12.42,56.75-48.35,82.84-60.93,90.4l-.05,0c-19.3,13.19-41.91,17.11-55.06,9.52C311.64,352.63,307,347,305.42,337.89a21.13,21.13,0,0,1-.31-3.56A31.43,31.43,0,0,1,305.43,329.81Z" style="fill: rgb(38, 50, 56); transform-origin: 374.967px 257.5px 0px;" id="els6nga1cgnnm" class="animable"></path><polygon points="398.95 155.54 404.45 152.36 449.21 178.21 443.7 181.39 405.28 159.2 398.95 155.54" id="elfbh8c9kzoos" style="transform-origin: 424.08px 166.875px 0px;" class="animable"></polygon><path d="M440.49,275.94l-.88,4.42s5-.63,9.32-1.31c2.38-.37,3.91-1.48,4.24-2.55h0v0l.05-.21,7.71-36.94-13.62,4.16Z" style="fill: rgb(38, 50, 56); transform-origin: 450.27px 259.855px 0px;" id="el6vzq1y6hm8n" class="animable"></path><path d="M459.2,237.5l.27-1.76c2.07.52,1.55,2.92,1.49,3.56-.12,1.15-1.71,2.43-4.32,2.85-4.28.68-9.32,1.31-9.32,1.31l-52-30.21a1.13,1.13,0,0,1,0-1.95l2.45-1.41L448,239.08Z" id="el95l7s63l2vi" style="transform-origin: 427.912px 226.676px 0px;" class="animable"></path><path d="M387.09,248.77a1.09,1.09,0,0,0-.08.39h0a1.1,1.1,0,0,0,.55,1l52.05,30.22,7.71-36.9L394.77,212Z" style="fill: rgb(55, 71, 79); transform-origin: 417.166px 246.189px 0px;" id="els8rj4mxfgjp" class="animable"></path><path d="M347.33,199.14,277,158.53c3.19.85,9.52-1.06,16.49-7.4,7.86-7.16,15.25-17.77,34.23-28.73,13.19-7.62,28-9.36,40.71-8.53,22.07,1.45,28,6.66,40.46,13.71,16.25,9.19,25.61,14.58,28.08,16-14.14-7.92-35.51-9.84-63.52,6.33a104.08,104.08,0,0,0-21.11,15.48c-8.66,8.5-11.26,21.68-5.7,32.48C346.86,198.31,347.09,198.73,347.33,199.14Z" style="fill: rgb(38, 50, 56); transform-origin: 356.984px 156.41px 0px;" id="elgzz3pmkx3nm" class="animable"></path><path d="M437,143.6l-2.89,5.15a41.82,41.82,0,0,0-20.73-5.17h-.07v-5.93A47.84,47.84,0,0,1,437,143.6Z" style="fill: rgb(55, 71, 79); transform-origin: 425.154px 143.197px 0px;" id="elemr3e80c99i" class="animable"></path><path d="M413.29,143.58c-11.29,0-23.7,3.88-36.87,11.48a99.81,99.81,0,0,0-19.92,14.58c-6.94,6.8-8.82,17.3-4.59,25.53.18.34.89,1.6,1.09,1.93l-5.67,2h0c-.24-.41-.47-.83-.68-1.25-5.56-10.8-3-24,5.7-32.48a104.08,104.08,0,0,1,21.11-15.48c15.29-8.82,28.59-12.26,39.83-12.28Z" style="fill: rgb(55, 71, 79); transform-origin: 378.5px 168.355px 0px;" id="elnsf0ijiuo7i" class="animable"></path></g></g></g><g id="freepik--Character--inject-61" style="transform-origin: 132.061px 229.047px 0px;" class="animable"><g id="freepik--Chartacter--inject-61" style="transform-origin: 132.061px 229.047px 0px;" class="animable"><g id="freepik--Bottom--inject-61" style="transform-origin: 120.504px 304.059px 0px;" class="animable"><polygon points="137.59 389.52 144.15 387.02 141.98 382.58 137.96 386.36 137.59 389.52" id="eldjdnkqr3rv9" style="transform-origin: 140.87px 386.05px 0px;" class="animable"></polygon><path d="M130.75,377.7s-.24,4.28-.29,5.63,5.71,5.5,7.13,6.19l.37-3.16c1.23,1.23,2,2.79,3.31,5.09,1.11,1.91,2.54,5.54,5.59,8,4.53,3.66,11.57,5.49,18.74,5.72s11.28-1.56,13.31-3.12,2.67-3.39,2.15-5.21S130.75,377.7,130.75,377.7Z" style="fill: rgb(38, 50, 56); transform-origin: 155.846px 391.445px 0px;" id="el4rk34tccw8t" class="animable"></path><path d="M149.87,363l.07-2.48c1.32-.05,1.5,3.55,3.44,6.69,2.62,4.22,6.46,9.52,10.16,12.86,7.3,6.59,13.81,10.72,17.07,13.69,4.36,4-3.24,10.35-15,9.75-5.81-.29-16.14-3.17-19.06-6.59s-4.72-8.76-7.06-11.24-7.33-5-8.79-8c-.8-1.66-.4-5.54.06-8.84.42-3,.49-7.68,2.19-7.31l.13,1.56c.71,1.32,2.33,3.5,7,4.27C142.49,367.76,149.47,367.94,149.87,363Z" style="fill: rgb(55, 71, 79); transform-origin: 156.047px 382.035px 0px;" id="el2a0jj6jeq3s" class="animable"></path><g id="el8qiq04i921j"><path d="M143.91,367.48c2.24-.2,4.64-1,5.57-3,0,0,0,0,0-.07a5.68,5.68,0,0,0,1.53,4.76c2.11,2.44,15.41,19.65,15.41,19.65S154.09,374.66,151.72,372c-3.51-3.95-4.62-4.41-7.82-4.5Z" style="opacity: 0.15; transform-origin: 155.16px 376.615px 0px;" class="animable" id="el94ifxfge0r4"></path></g><g id="elfelt57xh25v"><path d="M146.86,372.05a.72.72,0,0,1-.79.63.7.7,0,0,1-.63-.78.71.71,0,1,1,1.42.15Z" style="opacity: 0.15; transform-origin: 146.15px 371.973px 0px;" class="animable" id="eliw64w0v52xn"></path></g><g id="elzqlkj59iw2"><path d="M150.33,375.85a.71.71,0,1,1-.63-.79A.72.72,0,0,1,150.33,375.85Z" style="opacity: 0.15; transform-origin: 149.623px 375.766px 0px;" class="animable" id="elxktkeyekkgb"></path></g><g id="eldax6d8bxeao"><path d="M153.8,379.65a.71.71,0,1,1-.63-.79A.72.72,0,0,1,153.8,379.65Z" style="opacity: 0.15; transform-origin: 153.096px 379.564px 0px;" class="animable" id="elymnjrztfyxk"></path></g><g id="elqpkb2iv8ig8"><path d="M157.28,383.45a.72.72,0,1,1-.64-.78A.72.72,0,0,1,157.28,383.45Z" style="opacity: 0.15; transform-origin: 156.564px 383.387px 0px;" class="animable" id="elqyzyx0jd2x"></path></g><g id="el7gfwk534og4"><path d="M160.75,387.26a.71.71,0,0,1-.79.63.7.7,0,0,1-.63-.78.71.71,0,1,1,1.42.15Z" style="opacity: 0.15; transform-origin: 160.039px 387.184px 0px;" class="animable" id="el95fyfh2dblr"></path></g><path d="M146.13,372.26a.34.34,0,0,1-.19-.09.28.28,0,0,1,0-.4c.15-.15,3.58-3.48,8.08-3.24h0a.28.28,0,0,1,.26.3.28.28,0,0,1-.3.27c-4.25-.22-7.61,3-7.64,3.08A.3.3,0,0,1,146.13,372.26Z" style="fill: rgb(38, 50, 56); transform-origin: 150.068px 370.391px 0px;" id="elclyfnfxtblv" class="animable"></path><path d="M149.6,376.05a.31.31,0,0,1-.18-.09.28.28,0,0,1,0-.4c.14-.15,3.57-3.48,8.08-3.25h0a.29.29,0,1,1,0,.57c-4.25-.23-7.61,3-7.65,3.07A.27.27,0,0,1,149.6,376.05Z" style="fill: rgb(38, 50, 56); transform-origin: 153.59px 374.176px 0px;" id="elv1flwjh1i0m" class="animable"></path><path d="M153.07,379.86a.25.25,0,0,1-.18-.08.3.3,0,0,1,0-.41c.14-.14,3.57-3.48,8.08-3.24h0a.29.29,0,0,1,.27.3.3.3,0,0,1-.3.28c-4.25-.23-7.61,3-7.64,3.07A.3.3,0,0,1,153.07,379.86Z" style="fill: rgb(38, 50, 56); transform-origin: 157.023px 377.988px 0px;" id="eluey54g1bm0b" class="animable"></path><path d="M156.54,383.67a.34.34,0,0,1-.18-.09.3.3,0,0,1,0-.41c.15-.14,3.57-3.48,8.08-3.24h0a.29.29,0,0,1,0,.58c-4.25-.23-7.61,3-7.64,3.07A.33.33,0,0,1,156.54,383.67Z" style="fill: rgb(38, 50, 56); transform-origin: 160.504px 381.795px 0px;" id="elk6452167qak" class="animable"></path><path d="M160,387.47a.34.34,0,0,1-.19-.09.28.28,0,0,1,0-.4c.14-.15,3.57-3.48,8.07-3.25h0a.29.29,0,1,1,0,.57c-4.24-.23-7.61,3-7.64,3.08A.3.3,0,0,1,160,387.47Z" style="fill: rgb(38, 50, 56); transform-origin: 163.975px 385.594px 0px;" id="eltawag3aucr" class="animable"></path><path d="M84.84,408.22c-1,5.6-2.32,9.23-4.71,12.3s-6.69,3.41-9.88,2.74c-4.49-.94-8.9-4.06-10.62-10.47-1-3.86-.32-8.29,1.17-13.41Z" style="fill: rgb(38, 50, 56); transform-origin: 71.9981px 411.463px 0px;" id="elngn9wnalfsd" class="animable"></path><path d="M72.38,365.24c-1.59-.06-3,7.45-4.77,14.92-1.93,8-5,12.25-6.42,17.63-2,7.45-1.9,10.93.22,15.84S74.54,424.55,80,418.52c4.43-4.92,5.29-10.86,5.85-18.49.58-7.9.92-13.46,2-19.38,1-5.65,2-11.13.75-11.92-.21.82-.44,1.87-.65,2.68-.16.62-.68,3.68-1.57,3.61a12,12,0,0,1,.24-2.15,2.56,2.56,0,0,0-.21-1.89,3.07,3.07,0,0,0-1.66-1,45.2,45.2,0,0,0-4.59-1.28c-.77-.16-1.56-.29-2.35-.38a27.49,27.49,0,0,0-4.14-.32,1.43,1.43,0,0,0-.94.67,2.34,2.34,0,0,0-.19.86,6.2,6.2,0,0,1-.38,1.54c-.09.22-.27.48-.49.39s-.23-.3-.21-.49c.11-.92.3-1.57.47-2.63.08-.49.24-1.16.31-1.65S72.29,365.73,72.38,365.24Z" style="fill: rgb(55, 71, 79); transform-origin: 74.4688px 393.145px 0px;" id="elpoi2n58sddi" class="animable"></path><g id="elwa2pvwakqe"><path d="M66.74,400.35a.55.55,0,1,0,.66-.42A.55.55,0,0,0,66.74,400.35Z" style="opacity: 0.15; transform-origin: 67.2754px 400.467px 0px;" class="animable" id="el32v63nn9g59"></path></g><g id="ellwcws91zl7"><path d="M67.89,395.17a.55.55,0,0,0,.42.66.56.56,0,0,0,.66-.42.55.55,0,1,0-1.08-.24Z" style="opacity: 0.15; transform-origin: 68.4277px 395.289px 0px;" class="animable" id="el7i5ranq1kjq"></path></g><g id="elkx27zuhraei"><path d="M69,390.27a.55.55,0,1,0,.66-.42A.55.55,0,0,0,69,390.27Z" style="opacity: 0.15; transform-origin: 69.5371px 390.385px 0px;" class="animable" id="ele2u7ptvsa7s"></path></g><g id="elqwhanhz51eg"><path d="M70.05,385.45a.55.55,0,0,0,.42.66.56.56,0,0,0,.66-.42.55.55,0,1,0-1.08-.24Z" style="opacity: 0.15; transform-origin: 70.5879px 385.568px 0px;" class="animable" id="el61xe84pgp34"></path></g><g id="elk6xe3suhv7a"><path d="M82.41,387.71a.55.55,0,1,0,.66-.43A.56.56,0,0,0,82.41,387.71Z" style="opacity: 0.15; transform-origin: 82.9492px 387.818px 0px;" class="animable" id="eljxeu6ifo37q"></path></g><g id="elu6lpqn738l"><path d="M81.33,392.56a.57.57,0,0,0,.42.67.56.56,0,0,0,.24-1.09A.57.57,0,0,0,81.33,392.56Z" style="opacity: 0.15; transform-origin: 81.8496px 392.682px 0px;" class="animable" id="el0r9rr72b7omp"></path></g><g id="elxy51o4v50v"><path d="M80.24,397.46a.56.56,0,0,0,.43.66.55.55,0,0,0,.66-.42.56.56,0,0,0-1.09-.24Z" style="opacity: 0.15; transform-origin: 80.7793px 397.6px 0px;" class="animable" id="elte54hlye3k"></path></g><g id="el0knhqqiup32p"><path d="M79.09,402.65a.55.55,0,1,0,.66-.42A.55.55,0,0,0,79.09,402.65Z" style="opacity: 0.15; transform-origin: 79.627px 402.768px 0px;" class="animable" id="el82bwi948vxo"></path></g><g id="eluqoa5wfv7vm"><polygon points="74.17 404.57 82.75 368.45 80.73 368.16 74.17 404.57" style="opacity: 0.15; transform-origin: 78.46px 386.365px 0px;" class="animable" id="el3ydxic6iqmv"></polygon></g><path d="M67.22,400.75h.09c3.73-.37,9.89.74,12.18,2.22a.28.28,0,0,0,.39-.09.28.28,0,0,0-.09-.38c-2.42-1.57-8.64-2.7-12.54-2.31a.29.29,0,0,0-.25.31A.28.28,0,0,0,67.22,400.75Z" style="fill: rgb(38, 50, 56); transform-origin: 73.459px 401.564px 0px;" id="eljc68na06ne" class="animable"></path><path d="M68.37,395.56a.26.26,0,0,0,.15,0c2.93-1,9.5.55,12.12,2.23a.28.28,0,0,0,.39-.08.29.29,0,0,0-.08-.39c-2.73-1.76-9.52-3.33-12.61-2.29a.28.28,0,0,0-.18.36A.31.31,0,0,0,68.37,395.56Z" style="fill: rgb(38, 50, 56); transform-origin: 74.6094px 396.268px 0px;" id="el9ulv9a1qnhs" class="animable"></path><path d="M69.46,390.67a.26.26,0,0,0,.15,0c2.93-1,9.5.54,12.12,2.23a.27.27,0,0,0,.39-.09.28.28,0,0,0-.09-.38c-2.72-1.77-9.51-3.33-12.6-2.29a.27.27,0,0,0-.18.35A.29.29,0,0,0,69.46,390.67Z" style="fill: rgb(38, 50, 56); transform-origin: 75.6973px 391.377px 0px;" id="el0hw3sr1954rs" class="animable"></path><path d="M70.53,385.84a.26.26,0,0,0,.15,0c2.93-1,9.5.55,12.12,2.23a.28.28,0,0,0,.39-.08.29.29,0,0,0-.08-.39c-2.73-1.76-9.52-3.33-12.61-2.29a.28.28,0,0,0-.18.36A.31.31,0,0,0,70.53,385.84Z" style="fill: rgb(38, 50, 56); transform-origin: 76.7695px 386.547px 0px;" id="el58syb6n6xt" class="animable"></path><path d="M80,190.11C76.33,236.66,74.08,300,74.08,300c-.33,3.54-2.83,9.59-4.54,27-1.8,18.4-3.26,52.85-3.26,52.85s12.87,6.92,23.29,3.45c0,0,10.28-49,15.62-70.68,5.06-20.52,13-59.41,13-59.41l5.4,38.48s-.72,13.27-.33,22.55c.46,10.8,7.35,55.61,7.35,55.61s14,8.24,24.82-.05c0,0,1.88-64.49,2.18-77.48.6-25.48-2.38-74.86-3.31-107.75Z" style="fill: rgb(38, 50, 56); transform-origin: 111.984px 284.422px 0px;" id="elx4rzdpbrcy" class="animable"></path><path d="M98.93,243.68q-1.46,16.74-3.25,33.44-.89,8.36-1.83,16.7l-.95,8.34-.49,4.17c-.15,1.39-.44,2.77-.65,4.15Q89,327,86,343.57t-6.41,33q2.16-16.65,4.77-33.23t5.42-33.13c.22-1.38.51-2.75.67-4.14l.51-4.16L92,293.56q1.06-8.32,2.17-16.64Q96.4,260.28,98.93,243.68Z" id="elb5sarjovek" style="transform-origin: 89.2598px 310.125px 0px;" class="animable"></path><path d="M150.49,240.52c1.16,10.41,1.78,20.87,2.23,31.33s.86,20.95.46,31.41c-.25,10.46-.52,20.92-.91,31.38s-.87,20.92-1.49,31.37q-.25-15.7-.1-31.39c.07-10.46.26-20.92.47-31.38l.2-7.84.05-2,0-1.94,0-3.92-.19-15.69-.26-15.68C150.82,251,150.66,245.75,150.49,240.52Z" id="elpk1sjqoeqko" style="transform-origin: 151.916px 303.266px 0px;" class="animable"></path><path d="M118.16,253.28l4.55-25.5s12.64-1.84,19.11-7.65c0,0-4.18,7.69-16.09,10.7l-4.52,22.52,2.35,38.41Z" id="ell01sh8gaqt" style="transform-origin: 129.99px 255.945px 0px;" class="animable"></path></g><g id="freepik--Top--inject-61" style="transform-origin: 132.061px 134.303px 0px;" class="animable"><path d="M185,155.86c-.85-.67-2.83.57-5.5,2.32a5.29,5.29,0,0,0-2.32,3.91,7.1,7.1,0,0,0,4.41-1.64A12.52,12.52,0,0,0,185,155.86Z" style="fill: rgb(38, 50, 56); transform-origin: 181.09px 158.883px 0px;" id="el6wup8hjknpc" class="animable"></path><path d="M187.24,174.34c-.84-.43-1.11-.87.3-1.8s6-3.22,6-3.22l.72,1.89S188.75,175,187.24,174.34Z" id="el12zxs98kg1m" style="transform-origin: 190.402px 171.869px 0px;" class="animable"></path><path d="M140.9,99.2c6.92.16,7.91,1.89,17.66,7.74,6.42,3.86,47.39,30.21,52.67,34.37,4.25,3.36-18,15.9-18.42,15.82S147.08,134,147.08,134Z" style="fill: rgb(255, 168, 167); transform-origin: 176.334px 128.164px 0px;" id="elda6z9li0k8v" class="animable"></path><path d="M134.79,96.78c10.39-.32,16.14,3,26.73,10.35s27.93,19.18,31.44,21,8,.63,8.83,6.21c-9.73.3-18.31,14.36-17.53,18.57-.72,1.23-2.76,1.16-8.82-2.1-6.91-3.72-37.71-18.16-37.71-18.16Z" style="fill: rgb(240, 240, 240); transform-origin: 168.289px 125.203px 0px;" id="elopofg106t17" class="animable"></path><path d="M187.31,165.55c-1.18-1.47-4-5.14-6.35-4.6-3.64.86-5.46,1.93-11,3.46-4,1.1-8.85,2.65-10,3.63-2.94,2.51-3.38,10.11-2.94,13.44s3.66,2.48,3.66,2.48c.19.69.77,2.23,3.47,2.15,0,1,1.31,2.41,3.7,2.34.1,1.12,2.11,1.84,3.61,1.45,2.06-.54,4.54-3,5.92-3.78s2-1.14,2.17-1.79c.19-.88-.64-1.93-2.28-2.06a10.2,10.2,0,0,0,5.49-2.3,21.67,21.67,0,0,0,3.26-4,10.36,10.36,0,0,1,2.82-3.16c2.13-1.71,0-5.18-1.24-6.84C187.53,165.82,187.42,165.68,187.31,165.55Z" style="fill: rgb(255, 168, 167); transform-origin: 173.311px 175.449px 0px;" id="elf5211lc2u" class="animable"></path><path d="M177.3,182.27a8.11,8.11,0,0,0-1.74.79,6.92,6.92,0,0,0-.74.57c-.23.22-.42.46-.68.7l-.13.12-.14-.1a6.39,6.39,0,0,0-2.92-.91,4.28,4.28,0,0,1,3.18.55l-.28,0a6.29,6.29,0,0,1,1.53-1.25A4.83,4.83,0,0,1,177.3,182.27Z" style="fill: rgb(242, 143, 143); transform-origin: 174.125px 183.359px 0px;" id="elvft3b1ijcer" class="animable"></path><path d="M172.85,186.85c.21-.48.46-.88.63-1.32a14.29,14.29,0,0,0,.52-1.36,2.16,2.16,0,0,1-.12,1.54A2.34,2.34,0,0,1,172.85,186.85Z" style="fill: rgb(242, 143, 143); transform-origin: 173.471px 185.512px 0px;" id="el36gmxe3uf3" class="animable"></path><path d="M167.88,188.45a10.27,10.27,0,0,1-.38-4.09,10.73,10.73,0,0,1,1.05-4,26.14,26.14,0,0,0-.61,4A23.78,23.78,0,0,0,167.88,188.45Z" style="fill: rgb(242, 143, 143); transform-origin: 167.996px 184.404px 0px;" id="elj7k6hnqsbbd" class="animable"></path><path d="M164.18,186.11a19.86,19.86,0,0,1-.3-4.93,16,16,0,0,1,1-4.83,38.36,38.36,0,0,0-.59,4.86C164.2,182.83,164.21,184.46,164.18,186.11Z" style="fill: rgb(242, 143, 143); transform-origin: 164.359px 181.23px 0px;" id="elfotn7itu0vf" class="animable"></path><path d="M160.71,184a14.25,14.25,0,0,1,.84-10,28.33,28.33,0,0,0-.89,4.94A31.31,31.31,0,0,0,160.71,184Z" style="fill: rgb(242, 143, 143); transform-origin: 160.861px 179px 0px;" id="el3uks5mygr5a" class="animable"></path><path d="M162.2,171.48a2.53,2.53,0,0,1,1.33-2,4.78,4.78,0,0,1,2.36-.49l-1.12.4a6,6,0,0,0-1,.45A3.7,3.7,0,0,0,162.2,171.48Z" style="fill: rgb(242, 143, 143); transform-origin: 164.045px 170.232px 0px;" id="elnndknby516" class="animable"></path><path d="M165.75,173.6a2.69,2.69,0,0,1,.4-1.15,2.88,2.88,0,0,1,.92-.85,4.79,4.79,0,0,1,2.37-.48l-1.12.39a6.66,6.66,0,0,0-1,.46A3.71,3.71,0,0,0,165.75,173.6Z" style="fill: rgb(242, 143, 143); transform-origin: 167.596px 172.357px 0px;" id="elkc2074kopaj" class="animable"></path><path d="M170,176.47a2.73,2.73,0,0,1,.4-1.15,2.88,2.88,0,0,1,.92-.85,4.79,4.79,0,0,1,2.37-.48l-1.12.4a5.82,5.82,0,0,0-1,.45A3.71,3.71,0,0,0,170,176.47Z" style="fill: rgb(242, 143, 143); transform-origin: 171.846px 175.225px 0px;" id="elbftjzvn4ot" class="animable"></path><path d="M186.7,174.89c3.43-3.76,21.14-9.69,26.08-14.48,5.76-5.58,5.75-7.92,5.6-10.47-.15-2.79-2.86-5.22-7.91-9.23-3.23.76-9.13,3.85-15,7.83-6.57,4.45-13.82,12.41-19.24,13.88Z" style="fill: rgb(255, 168, 167); transform-origin: 197.324px 157.801px 0px;" id="elgs9pk6tmci9" class="animable"></path><path d="M186.29,151.34c-.55.45-1.47,1.1-2,1.53,1.26.64,2.48,1.25,3.51,1.75.79-.76,1.91-1.78,3-2.8,4.9-4.69,9.93-7.57,15.82-7.37C198.43,141.68,190.19,148.15,186.29,151.34Z" style="fill: rgb(242, 143, 143); transform-origin: 195.455px 149.199px 0px;" id="el0m94e21obhuk" class="animable"></path><path d="M192.87,158.29,188,155.68a3.9,3.9,0,0,0-3.55.11l-4.7,2.91a1.23,1.23,0,0,0-.7,1c0,.28,0,1.3,0,1.58a1.25,1.25,0,0,0,.76,1l4.87,2.61a3.93,3.93,0,0,0,3.55-.11l4.7-2.91a1.24,1.24,0,0,0,.7-1c0-.29,0-1.33-.05-1.6A1.23,1.23,0,0,0,192.87,158.29Z" style="fill: rgb(55, 71, 79); transform-origin: 186.34px 160.283px 0px;" id="el7j13xkiqxxe" class="animable"></path><path d="M179.75,158.7l4.7-2.91a3.9,3.9,0,0,1,3.55-.11l4.87,2.61a1.08,1.08,0,0,1,.06,2.05l-4.7,2.91a3.9,3.9,0,0,1-3.55.11l-4.86-2.61A1.08,1.08,0,0,1,179.75,158.7Z" style="fill: rgb(69, 90, 100); transform-origin: 186.342px 159.52px 0px;" id="elhvezrw0ndn" class="animable"></path><path d="M186.45,163.22a3.17,3.17,0,0,1-1.53-.31l-4.86-2.62c-.31-.16-.49-.37-.5-.56s.16-.41.46-.6l4.7-2.9a3.12,3.12,0,0,1,1.51-.41,3.17,3.17,0,0,1,1.53.31l4.86,2.61c.31.17.5.38.5.57s-.16.41-.46.6l-4.7,2.9A3.12,3.12,0,0,1,186.45,163.22Z" style="fill: rgb(38, 50, 56); transform-origin: 186.34px 159.52px 0px;" id="elgpo12joi94o" class="animable"></path><path d="M184,163.89a.15.15,0,0,1-.09,0L180.46,162a.17.17,0,0,1-.07-.24.18.18,0,0,1,.24-.08l3.45,1.85a.18.18,0,0,1,.07.25A.16.16,0,0,1,184,163.89Z" style="fill: rgb(69, 90, 100); transform-origin: 182.271px 162.779px 0px;" id="ellb934zr1vt" class="animable"></path><path d="M189.27,156.94l-1.58,1a.19.19,0,0,0-.09.14.22.22,0,0,0,.06.15l1.58,1.5-4.88-1.39a.18.18,0,0,0-.2.08.16.16,0,0,0,0,.21l1.85,2.08-1.8-.4a.16.16,0,0,0-.13,0l-1.86,1.15.37.2,1.62-1,2.27.5a.17.17,0,0,0,.19-.09.17.17,0,0,0,0-.21l-1.8-2,5,1.42a.17.17,0,0,0,.2-.09.18.18,0,0,0,0-.22l-1.95-1.85,1.56-1Z" style="fill: #AF1B1B; transform-origin: 186.164px 159.301px 0px;" id="el3mrw12vvjsd" class="animable"></path><path d="M188.46,163.88c.74.37,2.28,1.72,2.45,4.92s-1.85,5.48-3.67,5.54c.55.52,2.14.15,4.21-.91l1.72-.89a4.65,4.65,0,0,0,2.5-3.59,7.36,7.36,0,0,0,0-1.42c-.2-2.53-.68-4.45-2.8-6.39Z" style="fill: rgb(38, 50, 56); transform-origin: 191.471px 167.857px 0px;" id="elmg8me688sq" class="animable"></path><path d="M201.79,134.3s9.26,4.47,7.78,5.78L208,139a42.59,42.59,0,0,0-11.25,5.9c-5,3.85-6,7-6,7l-3.27,3.08-3.65-2.25s-1.46-4.46,5-11.48C196.41,133,201.79,134.3,201.79,134.3Z" style="fill: rgb(224, 224, 224); transform-origin: 196.709px 144.604px 0px;" id="eleeh4fjdirjd" class="animable"></path><path d="M78.87,104.46s-8.15,6.75-4.3,23.32a242.25,242.25,0,0,1,5.16,32.82c.6,8.74-.38,38.19-.38,38.19,13.2,15.79,68.45,11.75,75.3-2.62,0,0,.78-57.8-4.22-77.59C147.6,107.37,142,100,137.75,96.79L120.6,95.17,103.54,95Z" style="fill: rgb(230, 230, 230); transform-origin: 114.113px 151.963px 0px;" id="elmly1rodka2a" class="animable"></path><path d="M105.29,219.64l-.18-.12c-2.38-1.5-4.59-3.27-6.9-4.88a16,16,0,0,0-2.8-1.49c-.93-.39-1.93-.54-2.9-.84s-2-.87-3.09-1.27a6.71,6.71,0,0,1-3.08-2,19.74,19.74,0,0,1-2.12-3.35A25.23,25.23,0,0,1,83,202.75q-7.7-.39-13.13,9.49c.58,1,1.12,1.91,1.59,2.67,3.91,6.34,3.48,12.57,9.7,19.15a19.14,19.14,0,0,0,12.46-7.23,17.44,17.44,0,0,0,2.24-4.13c0-.08-.63-1-.66-1.24-.08-.46.09-.64.55-.68a4.64,4.64,0,0,1,2.36.78,8.76,8.76,0,0,0,2.68,1.16,9.14,9.14,0,0,0,2.45.06c.87-.08,2.49-.27,3.12-.95C107.12,221,106,220.11,105.29,219.64Z" style="fill: rgb(255, 168, 167); transform-origin: 88.2422px 218.396px 0px;" id="elenxfmjvfi0r" class="animable"></path><path d="M50.46,184.73C55,192,64.78,204,69.85,212.24S83,202.75,83,202.75c-4.16-11.85-7.65-24.44-7.65-24.44s-9.09-5.54-17.44-3.18S50.46,184.73,50.46,184.73Z" style="fill: rgb(255, 168, 167); transform-origin: 66.7168px 194.482px 0px;" id="elrrhrhlous9k" class="animable"></path><path d="M49.12,158.1c2-7.77,9.15-31.75,11.51-38.7,3.12-9.21,6.62-11.64,18.24-14.94,9.53,9.94,5.62,34.83,5.62,34.83s-8.27,26.16-8.68,27.92,0,3.15-1.77,4.59c-4.1-2-23.9-3.26-27.2.83C43.76,168.78,47.75,163.37,49.12,158.1Z" style="fill: rgb(240, 240, 240); transform-origin: 65.4922px 138.545px 0px;" id="eljxo1hvord4" class="animable"></path><path d="M74,171.8c1.09.58.24,1.6.81,3.62S77,178.3,76,179.08a35.22,35.22,0,0,0-21.31,1.41c-4.95,1.85-4.2,4.24-4.2,4.24-1.54.61-2.87-1.69-3.05-4.49-.22-3.51-.94-6.23-.57-7.61C47.83,168.91,63,167.86,74,171.8Z" style="fill: rgb(224, 224, 224); transform-origin: 61.543px 177.064px 0px;" id="elaghcc4p8jve" class="animable"></path><path d="M81.14,234.06a19.14,19.14,0,0,0,12.46-7.23,17.16,17.16,0,0,0,2.16-3.93c-.27.59-1.33,2.56-4.55,5.39-3.86,3.4-7.29,3.49-9.33,2.94s-4.27-2.65-5.62-4.71A24.77,24.77,0,0,0,81.14,234.06Z" style="fill: rgb(242, 143, 143); transform-origin: 86.0117px 228.479px 0px;" id="elvc775bekfj" class="animable"></path><g id="freepik--Head--inject-61" style="transform-origin: 114.137px 74.8633px 0px;" class="animable"><path d="M99.11,45.17s-3.68,0-6.38,4.5c-1.36,2.25-2.49,6.42,0,18.74a49,49,0,0,0,5,13.72,6,6,0,0,0,3.3,3l.36-9.32.07-6.5s4.51-5.42,5.26-10.05c1-5.95-.14-8.49-.14-8.49Z" style="fill: rgb(55, 71, 79); transform-origin: 99.1934px 65.1504px 0px;" id="elqea2q54u44" class="animable"></path><path d="M97.82,45.4c1.25-5.17,8.28-11,21.11-10.85,10.52.12,16.42,4.11,19.67,10.46s.35,14.11.35,14.11l-32.8-4.27Z" style="fill: rgb(55, 71, 79); transform-origin: 118.98px 46.834px 0px;" id="el8mattyp6jcp" class="animable"></path><path d="M101.14,47.15c-.11,1.88-1.25,3.91-4.26,5.62a8.2,8.2,0,0,0-4.48,6.65A8,8,0,0,1,97,54.49a19.26,19.26,0,0,0,4.16-2.64s-.43,2.43-4.6,5.35-3.4,8-3.4,8a7.58,7.58,0,0,1,3-5.76c3.14-2.44,6.9-3.44,7-7.31A6.46,6.46,0,0,0,101.14,47.15Z" style="fill: rgb(224, 224, 224); transform-origin: 97.7832px 56.1738px 0px;" id="el4if95j4bznk" class="animable"></path><path d="M92.7,78c3.52,2.11,7.11-1,7.11-1L99.3,96.2s.14,3.72,5.83,7.34c8.07,5.14,11.61,6.48,14.89,11.64,3.22-8.1,6.54-12.54,1.59-19.14l.26-4.38a30.28,30.28,0,0,0,5.8.18c4.31-.4,7.2-3.61,8.77-8.15,2.32-6.72,3.76-17.61,1.93-29.41a10,10,0,0,0-3.16-6c-8-7.09-17.78-2.89-25.09-.57a13.49,13.49,0,0,1-9-.61c2.32,2.91,3.35,5.64,2.61,18.86a8.2,8.2,0,0,1-2,2.28c-1.65,1.26-2.7-2.33-3.93-3.79a5.39,5.39,0,0,0-8.48,1.39A8.84,8.84,0,0,0,92.7,78Z" style="fill: rgb(255, 168, 167); transform-origin: 113.666px 79.7637px 0px;" id="elcookuzbvfnr" class="animable"></path><path d="M117.24,58.38l-4.84,1.74a2.7,2.7,0,0,1,1.6-3.37A2.51,2.51,0,0,1,117.24,58.38Z" style="fill: rgb(55, 71, 79); transform-origin: 114.75px 58.3633px 0px;" id="elwkvwmefhkr" class="animable"></path><path d="M135.11,59.77,130.23,58a2.49,2.49,0,0,1,3.24-1.61A2.72,2.72,0,0,1,135.11,59.77Z" style="fill: rgb(55, 71, 79); transform-origin: 132.736px 58.002px 0px;" id="elakmpogzmrp8" class="animable"></path><path d="M114.21,63.34a2.1,2.1,0,1,0,2.15-2A2.09,2.09,0,0,0,114.21,63.34Z" style="fill: rgb(38, 50, 56); transform-origin: 116.307px 63.4395px 0px;" id="el1jkl8223tw3" class="animable"></path><path d="M129.82,63.56a2.1,2.1,0,1,0,4.19.12,2.08,2.08,0,0,0-2-2.15A1.91,1.91,0,0,0,129.82,63.56Z" style="fill: rgb(38, 50, 56); transform-origin: 131.912px 63.6797px 0px;" id="el9ctk5iilfad" class="animable"></path><path d="M122.18,59.18l.87,13.42,7.2-2.14A31.25,31.25,0,0,0,122.18,59.18Z" style="fill: rgb(242, 143, 143); transform-origin: 126.215px 65.8906px 0px;" id="el9ozbs12mlo" class="animable"></path><path d="M103.69,64.9c.32,9.15,3.46,9.82,6.7,10.39,4.29.76,6.45-1.54,14.14-1.44,4.67.06,6.11,1.46,8.75,2.58,1.95.83,3.55.61,4.32-1.14a30.78,30.78,0,0,0,1.6-9.85,73.43,73.43,0,0,1-.57,15c-.69,4.29-2.3,7.94-4.7,9.92-3.32,2.75-10.2,3.8-18.78,1.79s-11.79-5.61-12.78-8.66c-3.24-9.9-1.86-14.55-3-16.43S103.69,64.9,103.69,64.9Z" style="fill: rgb(55, 71, 79); transform-origin: 119.283px 79.0469px 0px;" id="ely9dg5of6qz" class="animable"></path><path d="M123.44,76.58c-4.39-.15-5.83.63-6.08,3.64-.36,4.3-.16,5.75,1.48,6,1.94.29,3.36.43,3.44-.79s.13-2.3-.25-2.76c-.67-.83-.43-1,1.5-.89s1.9.41,1.32,1c-.42.43-.4,1.91-.41,2.75s.19,1.3,3,1.07c2.42-.21,2-2.15,2-5.85C129.44,78.25,128.41,76.74,123.44,76.58Z" style="fill: rgb(255, 168, 167); transform-origin: 123.338px 81.6113px 0px;" id="elinpqx0kcvs" class="animable"></path><path d="M119.28,77.19l7.14,1.08a3.54,3.54,0,0,1-4,3.14A3.77,3.77,0,0,1,119.28,77.19Z" style="fill: rgb(177, 102, 104); transform-origin: 122.834px 79.3164px 0px;" id="el2rwhl5sxh7e" class="animable"></path><path d="M120.2,78.29a4.15,4.15,0,0,0-.87.07,3.72,3.72,0,0,0,3.06,3,3.46,3.46,0,0,0,1.16,0A3.31,3.31,0,0,0,120.2,78.29Z" style="fill: rgb(242, 143, 143); transform-origin: 121.439px 79.8496px 0px;" id="elbkvezg0fg2g" class="animable"></path></g><path d="M123.5,114.51s3.18-6,3.2-8.35l-3.82-4L121.65,112Z" style="fill: #AF1B1B; transform-origin: 124.174px 108.336px 0px;" id="el39zcuzzqkrw" class="animable"></path><g id="elotqwjojbqc"><path d="M123.5,114.51s3.18-6,3.2-8.35l-3.82-4L121.65,112Z" style="opacity: 0.2; transform-origin: 124.174px 108.336px 0px;" class="animable" id="elassmlrmwn9e"></path></g><polygon points="118.28 112.37 111.78 107.91 106.33 111.54 116.31 116.7 118.28 112.37" style="fill: #AF1B1B; transform-origin: 112.305px 112.305px 0px;" id="elpdml28bp1bo" class="animable"></polygon><g id="elq5b7xmp9nu"><polygon points="118.28 112.37 111.78 107.91 106.33 111.54 116.31 116.7 118.28 112.37" style="opacity: 0.2; transform-origin: 112.305px 112.305px 0px;" class="animable" id="el1tovs3ekosa"></polygon></g><path d="M116.44,172.83c.61-21,2.56-47.75,2.19-52.86l3.57-.33a194.34,194.34,0,0,1,11.93,52.65c.14,4.76-4.29,15.16-7.7,15.27S116.35,175.91,116.44,172.83Z" style="fill: #AF1B1B; transform-origin: 125.287px 153.6px 0px;" id="elgg1cwnb7cwb" class="animable"></path><g id="elp204klozcom"><path d="M116.44,172.83c.61-21,2.56-47.75,2.19-52.86l3.57-.33a194.34,194.34,0,0,1,11.93,52.65c.14,4.76-4.29,15.16-7.7,15.27S116.35,175.91,116.44,172.83Z" style="fill: rgb(255, 255, 255); opacity: 0.1; transform-origin: 125.287px 153.6px 0px;" class="animable" id="el5r3n9x874jm"></path></g><g id="elrzt0oq0z5l"><path d="M122.51,120.38c-.11-.25-.21-.5-.3-.74h0l-3.57.33h0c0,.43.05,1,.05,1.6A6.31,6.31,0,0,0,122.51,120.38Z" style="opacity: 0.5; transform-origin: 120.576px 120.605px 0px;" class="animable" id="eltfov7w1oce"></path></g><path d="M118.19,111.88a15.21,15.21,0,0,1,3.37-.13,8.11,8.11,0,0,1,1.94,2.76,12.24,12.24,0,0,1-1.3,5.13,4.3,4.3,0,0,1-3.57.33,7.52,7.52,0,0,1-2.55-3.45A6.8,6.8,0,0,1,118.19,111.88Z" style="fill: #AF1B1B; transform-origin: 119.789px 115.963px 0px;" id="elmxmyr3onmb" class="animable"></path><g id="ell80cib3iov"><path d="M118.19,111.88a15.21,15.21,0,0,1,3.37-.13,8.11,8.11,0,0,1,1.94,2.76,12.24,12.24,0,0,1-1.3,5.13,4.3,4.3,0,0,1-3.57.33,7.52,7.52,0,0,1-2.55-3.45A6.8,6.8,0,0,1,118.19,111.88Z" style="fill: rgb(255, 255, 255); opacity: 0.1; transform-origin: 119.789px 115.963px 0px;" class="animable" id="elek3wiaotlz"></path></g><path d="M118.26,111.87c-.11,0-.27.27-.38.28-2.47-1.36-2.86-1.82-3.52-1.64-1.26.34-4.26,5.51-5,7.18s-.62,1.66-2.9.11a40.79,40.79,0,0,1-10.28-10.15,30.43,30.43,0,0,1-4-8.3s2.66-3.58,3.44-4.95c1.52-2.65,2.36-3.71,3.87-3.47v1.73c.23,2.33,2.63,4.58,5.85,7.42s8.44,5.58,9.67,6.79A24.56,24.56,0,0,1,118.26,111.87Z" style="fill: rgb(245, 245, 245); transform-origin: 105.221px 104.926px 0px;" id="elavpj9btdjk" class="animable"></path><path d="M130.05,114c-.38.94-3.31-6.51-4.79-6.37-.72.05-2.34,2.05-3.7,4.15l-1,0a23,23,0,0,0,1.6-5.63c.33-2.53-.59-10-.59-10l.22-2.92c.4,0,.81,0,1.31.06a10.32,10.32,0,0,1,1.26,1.74c1.43,2.39,5.13,7.91,5.58,10.75A25.15,25.15,0,0,1,130.05,114Z" style="fill: rgb(245, 245, 245); transform-origin: 125.447px 103.656px 0px;" id="eltoba9zj4m38" class="animable"></path></g></g></g><g id="freepik--Sparkles--inject-61" style="transform-origin: 333.217px 225.654px 0px;" class="animable"><g id="freepik--Shine--inject-61" style="transform-origin: 333.217px 225.654px 0px;" class="animable"><g id="freepik--shine--inject-61" style="transform-origin: 445.77px 347.135px 0px;" class="animable"><path d="M445.77,355.4a.33.33,0,0,1-.33-.3l-.55-6.19a1,1,0,0,0-.88-.9l-4.86-.53a.33.33,0,0,1,0-.66l4.86-.53a1,1,0,0,0,.88-.9l.55-6.19a.33.33,0,0,1,.66,0l.56,6.19a1,1,0,0,0,.88.9l4.85.53a.33.33,0,0,1,0,.66l-4.85.53a1,1,0,0,0-.88.9l-.56,6.19A.33.33,0,0,1,445.77,355.4Zm-3.59-8.25,1.9.21a1.66,1.66,0,0,1,1.46,1.49l.23,2.56.23-2.56a1.66,1.66,0,0,1,1.46-1.49l1.9-.21-1.9-.21a1.66,1.66,0,0,1-1.46-1.49h0l-.23-2.56-.23,2.56a1.66,1.66,0,0,1-1.46,1.49Z" style="fill: #AF1B1B; transform-origin: 445.77px 347.135px 0px;" id="elynljk1pyowq" class="animable"></path></g><g id="freepik--shine--inject-61"><g style="opacity: 0.5; transform-origin: 463.363px 331.48px 0px;" class="animable" id="elr4ej6ut43m"><path d="M463.37,341.84a.41.41,0,0,1-.41-.38l-.7-7.77a1.27,1.27,0,0,0-1.11-1.13l-6.09-.67a.41.41,0,0,1,0-.82l6.09-.67a1.27,1.27,0,0,0,1.11-1.13l.7-7.77a.41.41,0,0,1,.41-.38.41.41,0,0,1,.41.38l.7,7.77a1.26,1.26,0,0,0,1.1,1.13l6.09.67a.41.41,0,0,1,0,.82l-6.09.67a1.26,1.26,0,0,0-1.1,1.13l-.7,7.77A.41.41,0,0,1,463.37,341.84Zm-4.51-10.36,2.38.26a2.09,2.09,0,0,1,1.84,1.88l.29,3.22.29-3.22a2.09,2.09,0,0,1,1.83-1.88l2.39-.26-2.39-.26a2.09,2.09,0,0,1-1.83-1.88h0l-.29-3.21-.29,3.21a2.09,2.09,0,0,1-1.84,1.88Z" style="fill: #AF1B1B; transform-origin: 463.363px 331.48px 0px;" id="elohtej3eycue" class="animable"></path></g></g><g id="freepik--shine--inject-61" style="transform-origin: 440.744px 105.875px 0px;" class="animable"><path d="M440.75,115.84a.4.4,0,0,1-.4-.36l-.67-7.48a1.19,1.19,0,0,0-1.06-1.08l-5.86-.65a.4.4,0,0,1-.36-.4.39.39,0,0,1,.36-.39l5.86-.65a1.2,1.2,0,0,0,1.06-1.08l.67-7.48a.39.39,0,0,1,.4-.36.38.38,0,0,1,.39.36l.68,7.48a1.2,1.2,0,0,0,1.06,1.08l5.86.65a.39.39,0,0,1,.35.39.4.4,0,0,1-.35.4l-5.86.65a1.19,1.19,0,0,0-1.06,1.08l-.68,7.48A.39.39,0,0,1,440.75,115.84Zm-4.34-10,2.29.26a2,2,0,0,1,1.77,1.8l.28,3.1.28-3.1a2,2,0,0,1,1.76-1.8l2.3-.26-2.3-.25a2,2,0,0,1-1.76-1.8h0l-.28-3.1-.28,3.1a2,2,0,0,1-1.77,1.8Z" style="fill: #AF1B1B; transform-origin: 440.744px 105.875px 0px;" id="el4pxovkv2bdp" class="animable"></path></g><g id="freepik--shine--inject-61"><g style="opacity: 0.5; transform-origin: 462.254px 120.441px 0px;" class="animable" id="elbf3kzkmwquk"><path d="M462.25,126.53a.25.25,0,0,1-.24-.22l-.41-4.57a.73.73,0,0,0-.65-.66l-3.58-.4a.24.24,0,0,1,0-.48l3.58-.4a.72.72,0,0,0,.65-.66l.41-4.57a.25.25,0,0,1,.24-.22.26.26,0,0,1,.25.22l.41,4.57a.72.72,0,0,0,.65.66l3.58.4a.24.24,0,0,1,0,.48l-3.58.4a.73.73,0,0,0-.65.66l-.41,4.57A.26.26,0,0,1,462.25,126.53Zm-2.65-6.09,1.4.16a1.21,1.21,0,0,1,1.08,1.1l.17,1.89.17-1.89a1.22,1.22,0,0,1,1.08-1.1l1.41-.16-1.41-.15a1.24,1.24,0,0,1-1.08-1.1h0l-.17-1.89-.17,1.89a1.22,1.22,0,0,1-1.08,1.11Z" style="fill: #AF1B1B; transform-origin: 462.254px 120.441px 0px;" id="elom0jmliep8g" class="animable"></path></g></g><g id="freepik--shine--inject-61" style="transform-origin: 213.15px 315.74px 0px;" class="animable"><path d="M208.31,319.69a.32.32,0,0,1-.31-.29l-.8-8.83a1.58,1.58,0,0,0-1.39-1.42l-6.92-.76a.32.32,0,0,1,0-.64l6.92-.76a1.58,1.58,0,0,0,1.39-1.42l.8-8.83a.32.32,0,0,1,.63,0l.8,8.83h0a1.57,1.57,0,0,0,1.39,1.42l6.91.76a.32.32,0,0,1,0,.64l-6.91.76a1.57,1.57,0,0,0-1.39,1.42l-.8,8.83A.32.32,0,0,1,208.31,319.69Zm-6.48-11.62,4,.45a2.21,2.21,0,0,1,2,2l.47,5.31.48-5.31a2.21,2.21,0,0,1,2-2l4.06-.45-4.06-.45a2.21,2.21,0,0,1-2-2l-.48-5.31-.47,5.31a2.21,2.21,0,0,1-2,2Z" style="fill: #AF1B1B; transform-origin: 208.311px 308.084px 0px;" id="elahwecj9re9t" class="animable"></path><g id="elfp3tyid8lql"><g style="opacity: 0.5; transform-origin: 222.25px 328.447px 0px;" class="animable" id="elt0nztqjh4pc"><path d="M222.22,335a.26.26,0,0,1-.26-.23l-.44-4.92a.79.79,0,0,0-.7-.71L217,328.7a.27.27,0,0,1-.23-.26.25.25,0,0,1,.23-.26l3.85-.43a.79.79,0,0,0,.7-.71l.44-4.91a.26.26,0,0,1,.26-.24h0a.25.25,0,0,1,.26.24l.44,4.91a.8.8,0,0,0,.7.71l3.85.43a.25.25,0,0,1,.23.26.27.27,0,0,1-.23.26l-3.85.42a.8.8,0,0,0-.7.71l-.44,4.92A.25.25,0,0,1,222.22,335Zm-2.85-6.54,1.51.16a1.33,1.33,0,0,1,1.16,1.19l.18,2,.18-2a1.33,1.33,0,0,1,1.16-1.19l1.51-.16-1.51-.17a1.32,1.32,0,0,1-1.16-1.18h0l-.18-2-.18,2a1.32,1.32,0,0,1-1.16,1.18Z" style="fill: #AF1B1B; transform-origin: 222.25px 328.447px 0px;" id="elxyevw3qx9i" class="animable"></path></g></g></g><g id="freepik--shine--inject-61" style="transform-origin: 274.311px 107.869px 0px;" class="animable"><path d="M274.31,115.79a.22.22,0,0,1-.22-.19l-.53-6a1.05,1.05,0,0,0-.94-1l-4.67-.52a.21.21,0,0,1-.19-.21.22.22,0,0,1,.19-.22l4.67-.51a1.07,1.07,0,0,0,.94-1l.53-6a.22.22,0,0,1,.22-.19.21.21,0,0,1,.21.19l.54,6h0a1.06,1.06,0,0,0,.94,1l4.66.51a.23.23,0,0,1,.2.22.22.22,0,0,1-.2.21l-4.66.52a1,1,0,0,0-.94,1l-.54,6A.21.21,0,0,1,274.31,115.79ZM269.93,108l2.74.3A1.48,1.48,0,0,1,274,109.6l.33,3.58.32-3.58a1.49,1.49,0,0,1,1.32-1.34l2.73-.3-2.73-.31a1.48,1.48,0,0,1-1.32-1.34l-.32-3.58-.33,3.58a1.47,1.47,0,0,1-1.31,1.34Z" style="fill: #AF1B1B; transform-origin: 274.311px 107.869px 0px;" id="elwh6s5w1rkj" class="animable"></path></g><g id="freepik--shine--inject-61"><g style="opacity: 0.5; transform-origin: 201.244px 223.404px 0px;" class="animable" id="elusrsg8yi5f"><path d="M201.25,231.65a.32.32,0,0,1-.33-.29l-.56-6.19a1,1,0,0,0-.88-.9l-4.85-.54a.33.33,0,0,1,0-.65l4.85-.54a1,1,0,0,0,.88-.9l.56-6.18a.33.33,0,0,1,.33-.3.32.32,0,0,1,.32.3l.56,6.19a1,1,0,0,0,.88.89l4.85.54a.33.33,0,0,1,0,.65l-4.85.54a1,1,0,0,0-.88.9l-.56,6.19A.31.31,0,0,1,201.25,231.65Zm-3.6-8.24,1.9.2a1.66,1.66,0,0,1,1.46,1.5l.24,2.56.23-2.56a1.66,1.66,0,0,1,1.46-1.5l1.9-.2-1.9-.21a1.66,1.66,0,0,1-1.46-1.5h0l-.23-2.56L201,221.7a1.66,1.66,0,0,1-1.46,1.5Z" style="fill: #AF1B1B; transform-origin: 201.244px 223.404px 0px;" id="elqoviixnz9yc" class="animable"></path></g></g><g id="freepik--shine--inject-61"><g style="opacity: 0.5; transform-origin: 250.975px 121.305px 0px;" class="animable" id="el03r9s4cxx2p9"><path d="M251,132a.43.43,0,0,1-.43-.39l-.72-8a1.29,1.29,0,0,0-1.15-1.16l-6.3-.7a.43.43,0,0,1-.38-.43.42.42,0,0,1,.38-.42l6.3-.7A1.3,1.3,0,0,0,249.8,119l.72-8a.43.43,0,0,1,.43-.39.42.42,0,0,1,.42.39l.73,8.05a1.3,1.3,0,0,0,1.14,1.16l6.31.7a.42.42,0,0,1,.38.42.43.43,0,0,1-.38.43l-6.31.7a1.28,1.28,0,0,0-1.14,1.16l-.73,8A.42.42,0,0,1,251,132Zm-4.67-10.73,2.47.28a2.14,2.14,0,0,1,1.9,1.94l.3,3.33.3-3.33a2.14,2.14,0,0,1,1.9-1.94l2.47-.28-2.47-.27a2.14,2.14,0,0,1-1.9-1.94h0l-.3-3.33-.3,3.33a2.14,2.14,0,0,1-1.9,1.94Z" style="fill: #AF1B1B; transform-origin: 250.975px 121.305px 0px;" id="el3m54lhiaoyd" class="animable"></path></g></g></g></g><defs>     <filter id="active" height="200%">         <feMorphology in="SourceAlpha" result="DILATED" operator="dilate" radius="2"></feMorphology>                <feFlood flood-color="#32DFEC" flood-opacity="1" result="PINK"></feFlood>        <feComposite in="PINK" in2="DILATED" operator="in" result="OUTLINE"></feComposite>        <feMerge>            <feMergeNode in="OUTLINE"></feMergeNode>            <feMergeNode in="SourceGraphic"></feMergeNode>        </feMerge>    </filter>    <filter id="hover" height="200%">        <feMorphology in="SourceAlpha" result="DILATED" operator="dilate" radius="2"></feMorphology>                <feFlood flood-color="#ff0000" flood-opacity="0.5" result="PINK"></feFlood>        <feComposite in="PINK" in2="DILATED" operator="in" result="OUTLINE"></feComposite>        <feMerge>            <feMergeNode in="OUTLINE"></feMergeNode>            <feMergeNode in="SourceGraphic"></feMergeNode>        </feMerge>            <feColorMatrix type="matrix" values="0   0   0   0   0                0   1   0   0   0                0   0   0   0   0                0   0   0   1   0 "></feColorMatrix>    </filter></defs></svg>